<svg width="22" height="22" viewBox="0 0 22 22" fill="none" xmlns="http://www.w3.org/2000/svg">
<path d="M20.1667 0H1.83343C0.82084 0 0 0.820834 0 1.83341V20.1667C0 21.1793 0.820839 22 1.83327 22H10.2667H14.6668H20.1667C21.1793 22 22 21.1792 22 20.1667V1.83341C22.0002 0.820834 21.1793 0 20.1667 0ZM13.9649 13.9648V21.3125H11.043V13.9649H8.07825V11.043H11.0001V8.46958C11.0001 6.37414 12.6072 4.60959 14.6524 4.42575H18.004V7.34755H15.065C14.4575 7.34755 13.965 7.84002 13.965 8.44747V11.0428H17.6173V13.9646L13.9649 13.9648Z" fill="white"/>
</svg>
