<svg width="14" height="14" viewBox="0 0 14 14" fill="none" xmlns="http://www.w3.org/2000/svg">
<path d="M12.3679 0.0166016H1.53456C0.936214 0.0166016 0.451172 0.50164 0.451172 1.09998V11.9333C0.451172 12.5317 0.936213 13.0166 1.53447 13.0166H6.51788H9.1179H12.3679C12.9662 13.0166 13.4512 12.5316 13.4512 11.9333V1.09998C13.4513 0.50164 12.9662 0.0166016 12.3679 0.0166016ZM8.70314 8.26851V12.6103H6.9766V8.2686H5.22469V6.54199H6.95122V5.02135C6.95122 3.78314 7.90086 2.74045 9.10941 2.63181H11.0899V4.35833H9.35319C8.99424 4.35833 8.70323 4.64934 8.70323 5.00829V6.54189H10.8614V8.26841L8.70314 8.26851Z" fill="#002395"/>
</svg>
