<svg width="22" height="18" viewBox="0 0 22 18" fill="none" xmlns="http://www.w3.org/2000/svg">
<path d="M20.605 0H1.39496C0.62451 0 0 0.663992 0 1.48315V16.5168C0 17.336 0.62451 18 1.39496 18H20.605C21.3755 18 22 17.336 22 16.5168V1.48164C21.9998 0.664664 21.3741 0 20.605 0ZM18.8146 0.822349H10.848H3.18541H18.8146ZM0.773451 1.5117C0.773451 1.15619 1.04448 0.868026 1.37885 0.868026H1.82836L10.746 7.72424C10.8152 7.77748 10.8967 7.80418 10.9784 7.80418C11.06 7.80418 11.1415 7.77748 11.2107 7.72424L20.1284 0.868026H20.5779C20.9122 0.868026 21.1833 1.15619 21.1833 1.5117V2.46688L10.9785 10.313L0.773451 2.46705V1.5117ZM2.44924 17.1777H1.37885C1.04448 17.1777 0.773451 16.8895 0.773451 16.534V3.4889L2.44924 4.79404V17.1777ZM18.7344 17.1777H3.26565H7C8 17.1777 10.9185 17.1777 11 17.1777C11.0815 17.1777 11.9308 17.2314 12 17.1777H18.7344ZM21.2265 16.5338C21.2265 16.8893 20.9555 17.1775 20.6211 17.1775H19.5509V4.79404L21.2267 3.4889L21.2265 16.5338Z" fill="white"/>
</svg>
