<svg width="23" height="23" viewBox="0 0 23 23" fill="none" xmlns="http://www.w3.org/2000/svg">
<path d="M18.3426 0H4.19684C1.88272 0 0 1.88272 0 4.19668V18.3424C0 20.6565 1.88272 22.5391 4.19684 22.5391H18.3426C20.6567 22.5391 22.5393 20.6564 22.5393 18.3424V4.19668C22.5393 1.88272 20.6565 0 18.3426 0ZM21.5708 18.5927C21.5708 20.2347 20.2349 21.5706 18.5929 21.5706H3.94652C2.30441 21.5706 0.968631 20.2347 0.968631 18.5927V3.94635C0.968631 2.30441 2.30458 0.968465 3.94652 0.968465H18.5929C20.2349 0.968465 21.5708 2.30441 21.5708 3.94635V18.5927Z" fill="white"/>
<path d="M11.2698 0.5C-0.499878 0.5 0.5001 0.5 0.500099 11.2695C0.500099 22.0389 0.00012207 22 11.2698 22C22.0001 22 22.0001 23 22.0001 10C22.0001 0.500002 22.0001 0.5 11.2698 0.5ZM11.2698 15.2755C9.06082 15.2755 7.2637 13.4784 7.2637 11.2695C7.2637 9.06051 9.06082 7.26339 11.2698 7.26339C13.4787 7.26339 15.2758 9.06051 15.2758 11.2695C15.2758 13.4784 13.4787 15.2755 11.2698 15.2755Z" fill="white"/>
<path d="M17.6355 4.24365C17.4615 4.24365 17.2913 4.3142 17.1685 4.43702C17.0457 4.55984 16.9751 4.73023 16.9751 4.90402C16.9751 5.07797 17.0457 5.2482 17.1685 5.37102C17.2918 5.49384 17.4617 5.56423 17.6355 5.56423C17.8093 5.56423 17.9793 5.49384 18.1025 5.37102C18.2253 5.24772 18.2957 5.07781 18.2957 4.90402C18.2957 4.73023 18.2253 4.56016 18.1025 4.43702C17.9796 4.3142 17.8093 4.24365 17.6355 4.24365Z" fill="#002395"/>
</svg>
