<svg width="15" height="14" viewBox="0 0 15 14" fill="none" xmlns="http://www.w3.org/2000/svg">
<path d="M11.6682 0.12207H3.23757C1.8584 0.12207 0.736328 1.24414 0.736328 2.62322V11.0538C0.736328 12.433 1.8584 13.555 3.23757 13.555H11.6682C13.0474 13.555 14.1693 12.4329 14.1693 11.0538V2.62322C14.1693 1.24414 13.0473 0.12207 11.6682 0.12207ZM13.5922 11.203C13.5922 12.1816 12.7959 12.9778 11.8174 12.9778H3.08838C2.10972 12.9778 1.31362 12.1816 1.31362 11.203V2.47403C1.31362 1.49546 2.10982 0.699259 3.08838 0.699259H11.8174C12.7959 0.699259 13.5922 1.49546 13.5922 2.47403V11.203Z" fill="#ED2939"/>
<path fill-rule="evenodd" clip-rule="evenodd" d="M1.616 1.21921C2.34516 0.420062 3.95018 0.420062 7.45284 0.420062C13.8479 0.420062 13.8479 0.420063 13.8479 6.0819C13.8479 10.0841 13.8479 11.8599 12.9664 12.6415C12.2634 13.2649 10.9995 13.2558 8.72767 13.2396C8.3338 13.2367 7.90963 13.2337 7.45284 13.2337H7.38055C4.0688 13.2337 2.48183 13.2337 1.72301 12.441C1.02482 11.7117 1.02771 10.3112 1.03325 7.62218C1.03376 7.37224 1.0343 7.11117 1.0343 6.83847C1.0343 6.33585 1.03065 5.87259 1.02728 5.44561C1.00911 3.14275 0.999269 1.89514 1.616 1.21921ZM5.06529 6.83847C5.06529 8.15496 6.13634 9.22602 7.45284 9.22602C8.76933 9.22602 9.84038 8.15496 9.84038 6.83847C9.84038 5.52198 8.76933 4.45093 7.45284 4.45093C6.13634 4.45093 5.06529 5.52198 5.06529 6.83847ZM10.9683 2.76646C11.0415 2.69326 11.143 2.65121 11.2466 2.65121C11.3502 2.65121 11.4518 2.69326 11.525 2.76646C11.5982 2.83985 11.6401 2.94121 11.6401 3.04478C11.6401 3.14836 11.5982 3.24962 11.525 3.32311C11.4516 3.3963 11.3502 3.43825 11.2466 3.43825C11.1431 3.43825 11.0418 3.3963 10.9683 3.32311C10.8951 3.24991 10.8531 3.14845 10.8531 3.04478C10.8531 2.94121 10.8951 2.83966 10.9683 2.76646Z" fill="#ED2939"/>
</svg>
