<svg width="32" height="23" viewBox="0 0 32 23" fill="none" xmlns="http://www.w3.org/2000/svg">
<path d="M29.9252 0.998566H2.2252C1.2252 0.998566 0.325195 1.89857 0.325195 2.89857V21.0986C0.325195 22.0986 1.2252 22.9986 2.2252 22.9986H29.9252C31.0252 22.9986 31.8252 22.0986 31.8252 21.0986V2.89857C31.8252 1.89857 30.9252 0.998566 29.9252 0.998566ZM12.5252 19.3986C11.6252 19.3986 10.8252 19.3986 9.9252 19.3986C9.9252 18.1986 9.9252 16.9986 9.9252 15.8986C9.9252 14.6986 9.9252 13.4986 9.9252 12.3986C10.8252 12.5986 11.6252 12.7986 12.5252 12.9986C12.5252 15.0986 12.5252 17.2986 12.5252 19.3986ZM13.4252 11.4986C13.3252 11.5986 13.3252 11.6986 13.2252 11.6986H13.1252C12.6252 11.5986 12.1252 11.3986 11.5252 11.2986C10.8252 11.0986 10.0252 10.8986 9.3252 10.7986C9.3252 10.7986 9.22519 10.7986 9.22519 10.6986C9.12519 10.1986 9.0252 9.59857 9.0252 8.99857C9.0252 8.99857 9.0252 8.99857 9.0252 8.89857C8.42519 8.89857 7.8252 8.89857 7.2252 8.89857C7.2252 11.7986 7.2252 14.6986 7.2252 17.6986C6.9252 17.6986 6.6252 17.6986 6.3252 17.6986C6.3252 14.7986 6.3252 11.8986 6.3252 8.89857C6.0252 8.89857 5.7252 8.89857 5.4252 8.89857C7.3252 7.69857 9.0252 6.59857 10.7252 5.49857C10.7252 5.49857 10.8252 5.49857 10.9252 5.49857C11.4252 5.39857 11.9252 5.39857 12.4252 5.29857C12.9252 5.19857 13.3252 5.19857 13.8252 5.09857C14.3252 4.99857 14.8252 4.99857 15.3252 4.89857C15.8252 4.79857 16.2252 4.79857 16.7252 4.69857C17.0252 4.69857 17.3252 4.59857 17.7252 4.59857C16.8252 5.29857 16.0252 5.99857 15.1252 6.69857C15.3252 6.79857 15.4252 6.99857 15.5252 7.09857C15.8252 7.49857 15.9252 7.99857 16.1252 8.49857V8.59857C15.8252 8.99857 15.4252 9.39857 15.1252 9.79857C14.5252 10.2986 14.0252 10.8986 13.4252 11.4986ZM26.6252 19.3986C26.5252 19.4986 26.5252 19.4986 26.6252 19.3986C25.7252 19.3986 24.9252 19.3986 24.0252 19.3986C24.0252 19.3986 24.0252 19.3986 23.9252 19.3986V19.2986C23.9252 17.0986 23.9252 14.9986 23.9252 12.7986C23.9252 11.7986 23.1252 10.8986 22.1252 10.6986C21.4252 10.5986 20.8252 10.6986 20.2252 11.1986C19.8252 11.5986 19.5252 11.9986 19.5252 12.5986C19.5252 12.6986 19.5252 12.7986 19.5252 12.8986C19.5252 14.9986 19.5252 17.1986 19.5252 19.2986V19.3986C18.6252 19.3986 17.8252 19.3986 16.9252 19.3986V19.2986C16.9252 17.1986 16.9252 14.9986 16.9252 12.8986C16.9252 11.9986 16.5252 11.3986 15.7252 10.8986C16.3252 10.1986 16.9252 9.59857 17.5252 8.89857C17.8252 9.09857 18.0252 9.29857 18.2252 9.49857C18.3252 9.39857 18.4252 9.29857 18.6252 9.19857C19.3252 8.59857 20.1252 8.19857 20.9252 8.09857C22.0252 7.89857 23.0252 8.09857 24.0252 8.59857C25.3252 9.29857 26.2252 10.4986 26.5252 11.9986C26.5252 12.1986 26.5252 12.3986 26.6252 12.5986C26.6252 12.5986 26.6252 12.5986 26.6252 12.6986C26.6252 14.8986 26.6252 17.1986 26.6252 19.3986Z" fill="white"/>
</svg>
