<svg width="27" height="19" viewBox="0 0 27 19" fill="none" xmlns="http://www.w3.org/2000/svg">
<path d="M0.800781 3.9101C3.6833 5.80864 6.57212 7.70719 9.47986 9.62466C9.40417 9.68143 9.3474 9.72558 9.29064 9.76343C6.52797 11.5043 3.76529 13.2515 1.00262 14.9986C0.939546 15.0365 0.870163 15.0617 0.800781 15.0869C0.800781 11.3655 0.800781 7.63781 0.800781 3.9101Z" fill="white"/>
<path d="M13.7175 0.636566C17.4263 0.636566 21.1351 0.636566 24.8439 0.636566C25.6323 0.636566 26.2189 1.03394 26.4649 1.71514C26.5343 1.91698 26.5154 2.03052 26.3135 2.16297C23.513 3.99845 20.7251 5.84023 17.9309 7.68201C16.5811 8.57137 15.225 9.46072 13.8815 10.3564C13.7364 10.451 13.6481 10.4447 13.5094 10.3564C9.34642 7.60632 5.1898 4.86888 1.02687 2.13144C0.875487 2.03052 0.856564 1.94221 0.900716 1.78453C1.07733 1.16639 1.63869 0.699641 2.28836 0.642874C2.4082 0.636566 2.52804 0.636566 2.64158 0.636566C6.33776 0.636566 10.0276 0.636566 13.7175 0.636566Z" fill="white"/>
<path d="M26.5285 17.0107C26.3266 17.8875 25.7464 18.3605 24.8759 18.3605C17.4205 18.3605 9.97137 18.3605 2.51594 18.3605C1.74643 18.3605 1.15983 17.9505 0.926455 17.2819C0.86338 17.0927 0.875995 16.9792 1.07153 16.8593C3.18453 15.5348 5.28492 14.2039 7.39161 12.873C8.51434 12.1666 9.63077 11.4601 10.7472 10.7474C10.9112 10.6465 11.0184 10.6276 11.1887 10.7411C11.8321 11.1826 12.4881 11.5989 13.1377 12.0341C13.5162 12.2927 13.8757 12.2927 14.2604 12.0341C14.9227 11.5863 15.5913 11.1574 16.2536 10.7159C16.3671 10.6402 16.4555 10.6149 16.5879 10.7032C19.8615 12.7784 23.1351 14.8473 26.4086 16.9224C26.4402 16.9413 26.478 16.9792 26.5285 17.0107Z" fill="white"/>
<path d="M26.5736 3.91647C26.5736 7.66942 26.5736 11.3719 26.5736 15.1185C23.6722 13.2831 20.796 11.4665 17.8945 9.63104C20.796 7.71988 23.6659 5.82764 26.5736 3.91647Z" fill="white"/>
</svg>
