<svg width="14" height="14" viewBox="0 0 14 14" fill="none" xmlns="http://www.w3.org/2000/svg">
<path fill-rule="evenodd" clip-rule="evenodd" d="M3.06814 0.106186H11.4988C12.8778 0.106186 13.9999 1.22826 13.9999 2.60734V11.0379C13.9999 12.417 12.8779 13.5391 11.4988 13.5391H3.06814C1.68896 13.5391 0.566895 12.4171 0.566895 11.0379V2.60734C0.566895 1.22826 1.68896 0.106186 3.06814 0.106186ZM10.6739 5.43821C10.6739 5.36925 10.6724 5.30078 10.6698 5.2325C10.7697 5.15391 11.3876 4.65859 11.5391 4.34034C11.5391 4.34034 11.0372 4.54894 10.546 4.59803L10.5428 4.59822C10.5428 4.59822 10.5439 4.59765 10.5455 4.59649C10.5909 4.5663 11.2236 4.13551 11.3092 3.62236C11.3092 3.62236 10.9544 3.81176 10.4573 3.97754C10.375 4.00483 10.2889 4.03174 10.2001 4.05662C9.87973 3.71474 9.42435 3.50132 8.91891 3.50132C7.94941 3.50132 7.16372 4.28673 7.16372 5.25555C7.16372 5.39221 7.17943 5.52529 7.20923 5.65308C7.07374 5.64758 5.01042 5.53185 3.60675 3.83201C3.60675 3.83201 2.76782 4.97733 4.10669 6.15494C4.10669 6.15494 3.69972 6.13865 3.34858 5.92889C3.34858 5.92889 3.21954 7.31636 4.73576 7.67106C4.73576 7.67106 4.57365 7.7325 4.29774 7.7325C4.19937 7.7325 4.08653 7.72468 3.96145 7.70347C3.96145 7.70347 4.22763 8.82457 5.57469 8.92931C5.57469 8.92931 4.72139 9.70014 3.45823 9.70014C3.31 9.70014 3.15677 9.68963 2.99793 9.66591C3.77128 10.1564 4.68851 10.4402 5.6719 10.4402C8.43449 10.4402 10.6739 8.20051 10.6739 5.43821Z" fill="white"/>
</svg>
