<svg width="14" height="14" viewBox="0 0 14 14" fill="none" xmlns="http://www.w3.org/2000/svg">
<path fill-rule="evenodd" clip-rule="evenodd" d="M2.51931 0.122559H10.9499C12.329 0.122559 13.4511 1.24463 13.4511 2.62371V11.0543C13.4511 12.4334 12.3291 13.5555 10.9499 13.5555H2.51931C1.14013 13.5555 0.0180664 12.4335 0.0180664 11.0543V2.62371C0.0180664 1.24463 1.14013 0.122559 2.51931 0.122559ZM10.1251 5.45458C10.1251 5.38563 10.1235 5.31716 10.1209 5.24888C10.2208 5.17028 10.8388 4.67497 10.9902 4.35672C10.9902 4.35672 10.4884 4.56532 9.9972 4.6144L9.99402 4.6146C9.99402 4.6146 9.99508 4.61402 9.99672 4.61286C10.042 4.58267 10.6748 4.15188 10.7604 3.63873C10.7604 3.63873 10.4055 3.82814 9.90848 3.99391C9.82621 4.02121 9.74009 4.04811 9.65127 4.07299C9.3309 3.73112 8.87552 3.5177 8.37008 3.5177C7.40058 3.5177 6.61489 4.3031 6.61489 5.27193C6.61489 5.40858 6.63061 5.54167 6.66041 5.66945C6.52491 5.66395 4.4616 5.54822 3.05792 3.84839C3.05792 3.84839 2.21899 4.9937 3.55786 6.17132C3.55786 6.17132 3.15089 6.15502 2.79976 5.94526C2.79976 5.94526 2.67072 7.33273 4.18693 7.68744C4.18693 7.68744 4.02482 7.74887 3.74891 7.74887C3.65054 7.74887 3.53771 7.74106 3.41262 7.71984C3.41262 7.71984 3.6788 8.84095 5.02586 8.94568C5.02586 8.94568 4.17256 9.71652 2.9094 9.71652C2.76118 9.71652 2.60794 9.706 2.4491 9.68228C3.22245 10.1728 4.13968 10.4566 5.12307 10.4566C7.88567 10.4566 10.1251 8.21689 10.1251 5.45458Z" fill="#002395"/>
</svg>
