<svg width="23" height="18" viewBox="0 0 23 18" fill="none" xmlns="http://www.w3.org/2000/svg">
<path d="M21.1101 0.476074H1.42915C0.639818 0.476074 0 1.11589 0 1.90523V16.3916C0 17.1809 0.639818 17.8207 1.42915 17.8207H21.1101C21.8994 17.8207 22.5393 17.1809 22.5393 16.3916V1.90377C22.5391 1.11654 21.898 0.476074 21.1101 0.476074Z" fill="white"/>
<path d="M15.5523 8.91864L9.38033 5.47181C9.32936 5.44333 9.27564 5.43039 9.22321 5.43039C9.05444 5.43039 8.8999 5.56567 8.8999 5.75386V12.6475C8.8999 12.8357 9.05444 12.9708 9.22321 12.9708C9.27564 12.9708 9.32936 12.9579 9.38033 12.9294L15.5523 9.48257C15.773 9.35927 15.773 9.04179 15.5523 8.91864Z" fill="#002395"/>
</svg>
