<svg width="731" height="437" viewBox="0 0 731 437" fill="none" xmlns="http://www.w3.org/2000/svg">
<path d="M-280.019 291.357C-219.124 348.706 -160.718 407.757 -103.412 468.137C-48.0618 526.458 17.8252 573.591 76.401 628.837C183.396 567.082 290.381 505.311 397.359 443.53C387.943 403.061 376.405 363.342 365.164 323.521C354.849 286.976 349.459 248.721 339.361 212.195C332.655 187.949 317.125 173.325 286.803 180.404C252.315 188.454 230.301 196.835 218.178 163.261C168.413 187.499 138.779 165.736 104.755 141.96C74.3826 120.735 44.2881 106.554 1.80689 128.749C-93.8432 178.724 -186.53 237.355 -280.019 291.357Z" stroke="white" stroke-width="0.5" stroke-miterlimit="10"/>
<path d="M174.187 175.406C190.004 199.991 213.323 198.177 243.631 199.914C274.866 201.703 288.678 221.674 296.677 246.84C307.912 282.197 316.322 318.195 329.767 352.73C343.578 388.209 357.346 423.654 368.179 460.381" stroke="white" stroke-width="0.5" stroke-miterlimit="10"/>
<path d="M137.916 164.187C154.185 188.684 179.591 201.129 205.404 216.366C231.104 231.535 244.774 256.393 253.798 283.354C276.465 351.08 314.795 410.363 339.003 477.231" stroke="white" stroke-width="0.5" stroke-miterlimit="10"/>
<path d="M105.18 142.264C121.93 173.263 143.721 201.29 164.48 229.777C184.706 257.535 198.457 287.832 210.63 319.965C234.679 383.454 282.757 432.308 309.822 494.081" stroke="white" stroke-width="0.5" stroke-miterlimit="10"/>
<path d="M70.956 121.948C104.879 198.977 132.789 278.788 166.257 355.932C192.275 415.907 250.769 453.253 280.642 510.929" stroke="white" stroke-width="0.5" stroke-miterlimit="10"/>
<path d="M27.5045 118.118C66.8187 204.445 78.9774 303.664 122.492 387.829C152.063 445.025 218.808 472.414 251.465 527.772" stroke="white" stroke-width="0.5" stroke-miterlimit="10"/>
<path d="M-23.9691 143.534C22.9298 227.124 31.6399 329.662 81.8565 411.286C116.055 466.872 185.945 490.454 222.287 544.618" stroke="white" stroke-width="0.5" stroke-miterlimit="10"/>
<path d="M-75.1794 173.101C-24.8148 252.117 -8.09115 349.404 44.1748 427.057C81.6726 482.769 152.478 508.224 193.108 561.467" stroke="white" stroke-width="0.5" stroke-miterlimit="10"/>
<path d="M12.6239 574.794C72.5594 545.758 132.726 517.716 190.544 484.337C254.586 447.366 315.145 405.211 376.643 364.399" stroke="white" stroke-width="0.5" stroke-miterlimit="10"/>
<path d="M-12.8435 554.191C48.9144 527.458 111.932 503.507 170.634 469.646C239.943 429.667 303.144 379.981 368.139 333.948" stroke="white" stroke-width="0.5" stroke-miterlimit="10"/>
<path d="M-41.1643 530.015C21.9933 505.418 87.1396 486.142 146.662 451.857C222.22 408.335 288.839 350.518 358.397 299.011" stroke="white" stroke-width="0.5" stroke-miterlimit="10"/>
<path d="M-70.8968 502.097C-5.59247 479.519 62.8886 466.677 124.206 431.432C206.076 384.373 275.324 316.527 349.104 259.28" stroke="white" stroke-width="0.5" stroke-miterlimit="10"/>
<path d="M-103.162 468.412C-34.5344 445.334 36.9272 438.28 101.635 401.061C189.579 350.476 260.678 274.414 339.434 212.573" stroke="white" stroke-width="0.5" stroke-miterlimit="10"/>
<path d="M-139.773 430.173C-68.1479 401.225 10.449 389.256 78.1095 348.958C162.176 298.892 239.368 237.116 319.635 181.73" stroke="white" stroke-width="0.5" stroke-miterlimit="10"/>
<path d="M-180.371 387.629C-102.261 349.544 -19.3428 324.936 56.7119 281.949C130.284 240.368 211.1 218.241 286.326 180.46" stroke="white" stroke-width="0.5" stroke-miterlimit="10"/>
<path d="M-226.72 341.583C-180.935 315.747 -134.016 292.38 -87.1235 268.755C-46.4777 248.279 -7.33234 225.361 32.847 204.135C106.462 165.245 175.887 212.18 250.777 187.544" stroke="white" stroke-width="0.5" stroke-miterlimit="10"/>
</svg>
