<svg width="181" height="145" viewBox="0 0 181 145" fill="none" xmlns="http://www.w3.org/2000/svg">
<path d="M233.278 130.763C222.287 100.562 212.444 70.2073 203.209 39.5865C194.289 10.0101 179.82 -17.5471 169.261 -46.6254C121.875 -43.9158 74.4886 -41.1991 27.1029 -38.4775C23.3432 -22.9628 20.4413 -7.33868 17.4198 8.26875C14.6468 22.5924 9.88779 36.652 7.04338 50.9313C5.15605 60.4106 7.95965 68.1121 19.5883 70.9209C32.8146 74.1162 41.8173 75.043 40.1777 88.659C61.4433 88.938 67.8534 101.526 75.4225 115.563C82.179 128.094 90.057 138.16 108.47 137.881C149.929 137.254 191.865 133.145 233.278 130.763Z" stroke="#002395" stroke-width="0.5" stroke-miterlimit="10"/>
<path d="M57.3726 92.0904C56.1915 80.921 47.8756 77.515 37.7745 71.6833C27.3643 65.6735 26.0743 56.4337 27.6766 46.4155C29.9287 32.3407 33.2612 18.5339 34.6134 4.35961C36.0024 -10.2019 37.401 -24.7445 40.0277 -39.2197" stroke="#002395" stroke-width="0.5" stroke-miterlimit="10"/>
<path d="M67.8815 102.207C66.5301 90.9898 59.9613 82.3302 53.735 72.6416C47.5357 62.9964 47.1389 52.1041 48.6993 41.2928C52.6201 14.1347 49.7074 -12.8317 52.9511 -39.9613" stroke="#002395" stroke-width="0.5" stroke-miterlimit="10"/>
<path d="M75.328 115.386C74.9349 101.854 72.2983 88.4712 70.0955 75.1087C67.9492 62.0886 68.464 49.3157 69.8378 36.1854C72.5522 10.2428 64.4924 -14.8287 65.8754 -40.7034" stroke="#002395" stroke-width="0.5" stroke-miterlimit="10"/>
<path d="M83.5647 128.269C85.23 95.9742 89.4391 63.7633 91.2804 31.5073C92.7122 6.43027 79.0895 -16.491 78.8014 -41.445" stroke="#002395" stroke-width="0.5" stroke-miterlimit="10"/>
<path d="M97.8151 137.09C99.2362 100.673 112.204 64.5227 111.81 28.1217C111.543 3.38452 93.3683 -17.5453 91.7243 -42.1844" stroke="#002395" stroke-width="0.5" stroke-miterlimit="10"/>
<path d="M119.87 137.261C118.215 100.472 132.94 63.7785 129.807 27.0916C127.673 2.10786 107.762 -18.0588 104.647 -42.9246" stroke="#002395" stroke-width="0.5" stroke-miterlimit="10"/>
<path d="M142.55 135.961C138.916 100.143 149.984 63.8672 145.462 28.1892C142.217 2.59216 122.316 -18.375 117.57 -43.6661" stroke="#002395" stroke-width="0.5" stroke-miterlimit="10"/>
<path d="M165.233 134.663C159.217 100.234 165.635 64.9941 159.964 30.6146C155.583 4.0548 136.737 -18.3316 130.495 -44.4067" stroke="#002395" stroke-width="0.5" stroke-miterlimit="10"/>
<path d="M187.913 133.365C179.552 100.592 180.82 66.8026 174.202 33.8441C168.629 6.08984 151.11 -17.9957 143.417 -45.1466" stroke="#002395" stroke-width="0.5" stroke-miterlimit="10"/>
<path d="M210.593 132.065C200.411 100.833 196.156 68.7094 188.422 37.0408C181.381 8.20906 165.493 -17.6779 156.339 -45.8875" stroke="#002395" stroke-width="0.5" stroke-miterlimit="10"/>
<path d="M186.994 -5.58971C161.182 -7.0842 135.418 -9.75102 109.423 -8.2714C78.7309 -6.52437 48.4582 -0.391441 18.2011 4.17837" stroke="#002395" stroke-width="0.5" stroke-miterlimit="10"/>
<path d="M192.536 7.59819C166.613 5.12887 140.926 0.489875 114.576 1.97338C81.1272 3.85665 48.2772 12.1899 15.5081 17.8498" stroke="#002395" stroke-width="0.5" stroke-miterlimit="10"/>
<path d="M197.915 22.3146C171.604 18.7815 145.884 11.3584 118.752 12.8614C82.5269 14.8679 47.0418 26.1887 11.8323 33.0892" stroke="#002395" stroke-width="0.5" stroke-miterlimit="10"/>
<path d="M203.171 39.4479C175.632 35.5124 149.89 25.5881 121.253 27.1827C82.3342 29.3502 44.7945 43.1705 7.08406 50.7882" stroke="#002395" stroke-width="0.5" stroke-miterlimit="10"/>
<path d="M209.127 58.8969C179.546 56.4582 150.506 46.9881 120.324 49.1292C82.8255 51.7883 45.6627 59.6535 8.54863 64.7949" stroke="#002395" stroke-width="0.5" stroke-miterlimit="10"/>
<path d="M215.712 80.5106C182.327 80.0871 149.62 74.2079 116.093 75.8215C83.6613 77.3818 52.1044 71.0141 19.7617 70.9849" stroke="#002395" stroke-width="0.5" stroke-miterlimit="10"/>
<path d="M223.665 104.318C203.489 105.275 183.351 105.189 163.177 105.196C145.691 105.201 128.298 106.304 110.842 106.647C78.8609 107.276 63.1438 79.1759 33.187 74.6932" stroke="#002395" stroke-width="0.5" stroke-miterlimit="10"/>
</svg>
