<svg width="19" height="19" viewBox="0 0 19 19" fill="none" xmlns="http://www.w3.org/2000/svg">
<path d="M4.24161 11.4293C2.12339 9.31105 2.10631 5.89418 4.20345 3.79704C6.30046 1.70003 9.71746 1.71698 11.8357 3.83519C13.7697 5.76921 13.9516 8.78612 12.3723 10.8923L15.0467 13.5668C15.3462 13.8662 15.3486 14.3493 15.0521 14.6457C14.7557 14.9421 14.2726 14.9397 13.9732 14.6403L11.2988 11.9659C9.19246 13.5453 6.17563 13.3633 4.24161 11.4293ZM10.7895 10.3831C12.2937 8.87892 12.2815 6.42802 10.7621 4.9087C9.24283 3.38938 6.79181 3.37701 5.28762 4.88121C3.78343 6.3854 3.79569 8.83655 5.315 10.3559C6.8343 11.8752 9.28533 11.8873 10.7895 10.3831Z" fill="#ffffff"/>
</svg>
