<svg width="23" height="23" viewBox="0 0 23 23" fill="none" xmlns="http://www.w3.org/2000/svg">
<path d="M16.9333 15.7428L12.4791 11.2886L16.9333 6.83435C17.262 6.50573 17.262 5.97291 16.9333 5.64428L16.9333 5.64427C16.6047 5.31564 16.0719 5.31564 15.7433 5.64427L11.289 10.0985L6.83484 5.64429C6.50622 5.31566 5.9734 5.31566 5.64477 5.64429C5.31615 5.97292 5.31615 6.50574 5.64477 6.83436L10.099 11.2886L5.64476 15.7428C5.31614 16.0714 5.31614 16.6042 5.64476 16.9329L5.64478 16.9329C5.97341 17.2615 6.50623 17.2615 6.83485 16.9329L11.2891 12.4787L15.7433 16.9329C16.0719 17.2615 16.6047 17.2615 16.9334 16.9329C17.2619 16.6042 17.2619 16.0714 16.9333 15.7428Z" fill="white"/>
</svg>
