<svg width="180" height="145" viewBox="0 0 180 145" fill="none" xmlns="http://www.w3.org/2000/svg">
<path d="M-52.2779 130.761C-41.287 100.56 -31.4444 70.2054 -22.2088 39.5845C-13.2886 10.0081 1.18031 -17.549 11.7386 -46.6273C59.1254 -43.9177 106.511 -41.201 153.897 -38.4795C157.657 -22.9648 160.559 -7.34064 163.58 8.2668C166.353 22.5905 171.112 36.65 173.957 50.9294C175.844 60.4086 173.04 68.1101 161.412 70.919C148.185 74.1142 139.183 75.041 140.822 88.657C119.557 88.936 113.147 101.524 105.577 115.561C98.821 128.092 90.943 138.158 72.5299 137.879C31.0714 137.252 -10.8654 133.143 -52.2779 130.761Z" stroke="#ED2939" stroke-width="0.5" stroke-miterlimit="10"/>
<path d="M123.627 92.0884C124.809 80.919 133.124 77.5129 143.226 71.6813C153.636 65.6715 154.926 56.4317 153.323 46.4135C151.071 32.3387 147.739 18.5319 146.387 4.3576C144.998 -10.2039 143.599 -24.7465 140.972 -39.2217" stroke="#ED2939" stroke-width="0.5" stroke-miterlimit="10"/>
<path d="M113.119 102.205C114.47 90.9878 121.039 82.3281 127.265 72.6396C133.464 62.9944 133.861 52.1021 132.301 41.2908C128.38 14.1326 131.293 -12.8338 128.049 -39.9633" stroke="#ED2939" stroke-width="0.5" stroke-miterlimit="10"/>
<path d="M105.671 115.383C106.064 101.851 108.701 88.4684 110.903 75.1059C113.05 62.0858 112.535 49.3129 111.161 36.1825C108.447 10.24 116.507 -14.8315 115.124 -40.7062" stroke="#ED2939" stroke-width="0.5" stroke-miterlimit="10"/>
<path d="M97.435 128.267C95.7697 95.9722 91.5606 63.7613 89.7194 31.5053C88.2876 6.42825 101.91 -16.493 102.198 -41.447" stroke="#ED2939" stroke-width="0.5" stroke-miterlimit="10"/>
<path d="M83.1858 137.089C81.7648 100.672 68.7972 64.5215 69.1911 28.1205C69.4584 3.3833 87.6327 -17.5465 89.2766 -42.1857" stroke="#ED2939" stroke-width="0.5" stroke-miterlimit="10"/>
<path d="M61.1299 137.259C62.7843 100.47 48.0601 63.7765 51.1927 27.0896C53.3264 2.10585 73.2377 -18.0608 76.3525 -42.9266" stroke="#ED2939" stroke-width="0.5" stroke-miterlimit="10"/>
<path d="M38.4486 135.958C42.0827 100.141 31.0155 63.8644 35.5375 28.1864C38.7817 2.58935 58.6834 -18.3778 63.4292 -43.6689" stroke="#ED2939" stroke-width="0.5" stroke-miterlimit="10"/>
<path d="M15.7672 134.661C21.7829 100.232 15.3648 64.9921 21.0361 30.6126C25.4172 4.05279 44.2634 -18.3336 50.5054 -44.4088" stroke="#ED2939" stroke-width="0.5" stroke-miterlimit="10"/>
<path d="M-6.91082 133.364C1.44997 100.591 0.182159 66.801 6.79993 33.8425C12.3732 6.08819 29.8919 -17.9974 37.5845 -45.1483" stroke="#ED2939" stroke-width="0.5" stroke-miterlimit="10"/>
<path d="M-29.5934 132.063C-19.4109 100.831 -15.1557 68.7074 -7.42227 37.0388C-0.381394 8.2071 15.5073 -17.6798 24.6606 -45.8894" stroke="#ED2939" stroke-width="0.5" stroke-miterlimit="10"/>
<path d="M-5.99304 -5.59252C19.8192 -7.08701 45.5832 -9.75382 71.5781 -8.27421C102.27 -6.52717 132.543 -0.394248 162.8 4.17556" stroke="#ED2939" stroke-width="0.5" stroke-miterlimit="10"/>
<path d="M-11.5359 7.59624C14.3877 5.12691 40.0746 0.487922 66.4242 1.97143C99.873 3.8547 132.723 12.1879 165.492 17.8478" stroke="#ED2939" stroke-width="0.5" stroke-miterlimit="10"/>
<path d="M-16.9168 22.3132C9.39469 18.78 35.1145 11.357 62.2461 12.86C98.4716 14.8664 133.957 26.1872 169.166 33.0877" stroke="#ED2939" stroke-width="0.5" stroke-miterlimit="10"/>
<path d="M-22.1707 39.4459C5.36761 35.5104 31.1104 25.5861 59.7466 27.1807C98.6658 29.3482 136.205 43.1685 173.916 50.7862" stroke="#ED2939" stroke-width="0.5" stroke-miterlimit="10"/>
<path d="M-28.1289 58.8955C1.45219 56.4568 30.4928 46.9867 60.6741 49.1278C98.173 51.7869 135.336 59.6521 172.45 64.7935" stroke="#ED2939" stroke-width="0.5" stroke-miterlimit="10"/>
<path d="M-34.7117 80.5087C-1.32651 80.0852 31.3803 74.206 64.9068 75.8196C97.3387 77.3799 128.896 71.0123 161.238 70.983" stroke="#ED2939" stroke-width="0.5" stroke-miterlimit="10"/>
<path d="M-42.6642 104.317C-22.4884 105.274 -2.3501 105.188 17.8237 105.195C35.3099 105.2 52.7029 106.302 70.1585 106.646C102.14 107.275 117.857 79.1747 147.814 74.6921" stroke="#ED2939" stroke-width="0.5" stroke-miterlimit="10"/>
</svg>
