<svg width="1096" height="530" viewBox="0 0 1096 530" fill="none" xmlns="http://www.w3.org/2000/svg">
<rect width="1096" height="530" fill="white"/>
<path d="M538.252 481.66L496.333 481.66L517.292 409L538.252 409L538.252 481.66Z" fill="#ED2939" fill-opacity="0.2"/>
<path d="M460 422.973H501.919L480.96 495.633H460V422.973Z" fill="#ED2939" fill-opacity="0.2"/>
<path d="M189.252 398.66L147.333 398.66L168.292 326L189.252 326L189.252 398.66Z" fill="#ED2939" fill-opacity="0.2"/>
<path d="M111 339.973H152.919L131.96 412.633H111V339.973Z" fill="#ED2939" fill-opacity="0.2"/>
<path d="M985.252 481.66L943.333 481.66L964.292 409L985.252 409L985.252 481.66Z" fill="#ED2939" fill-opacity="0.2"/>
<path d="M907 422.973H948.919L927.96 495.633H907V422.973Z" fill="#ED2939" fill-opacity="0.2"/>
<path d="M636.252 398.66L594.333 398.66L615.292 326L636.252 326L636.252 398.66Z" fill="#ED2939" fill-opacity="0.2"/>
<path d="M558 339.973H599.919L578.96 412.633H558V339.973Z" fill="#ED2939" fill-opacity="0.2"/>
</svg>
