<svg width="208" height="101" viewBox="0 0 208 101" fill="none" xmlns="http://www.w3.org/2000/svg">
<path d="M12.9168 27.2461H0.707031V69.7279H12.9168V27.2461Z" fill="#293688"/>
<path d="M25.1768 35.1169V69.7783H37.3865V35.1169V0.60675H25.1768V35.1169Z" fill="#EC2B39"/>
<path d="M179.463 35.9241H188.797C193.388 35.9241 196.163 37.9927 196.163 41.9281V42.029C196.163 45.5607 193.54 47.9825 188.999 47.9825H179.514V35.9241H179.463ZM179.463 56.2568H186.829L195.961 69.7783H206.91L196.466 54.6928C201.915 52.7251 205.598 48.4366 205.598 41.6254V41.474C205.598 32.796 199.544 27.5489 189.503 27.5489H170.028V69.7279H179.413V56.2568H179.463Z" fill="#293688"/>
<path d="M103.43 53.4314H123.813V45.0057H103.43V36.025H126.538V27.5489H94.0459V69.7783H103.43V53.4314Z" fill="#293688"/>
<path d="M88.1431 51.3629V27.5489H78.7588V51.716C78.7588 58.4263 75.2775 61.8572 69.5763 61.8572C63.8246 61.8572 60.3938 58.3254 60.3938 51.4133V27.5489H50.959V51.6656C50.959 64.0771 57.972 70.3838 69.4249 70.3838C80.8778 70.4342 88.1431 64.1276 88.1431 51.3629Z" fill="#293688"/>
<path d="M144.398 38.3963L150.049 52.0692H138.696L144.398 38.3963ZM153.378 60.2931L157.263 69.7784H167.051L148.787 27.2966H140.16L121.896 69.7784H131.482L135.367 60.2931H153.378Z" fill="#293688"/>
<path d="M202.874 83.1485H206.961V81.4836H202.874V79.7177H207.516V78.0527H200.957V86.6298H207.566V84.9648H202.874V83.1485Z" fill="#293688"/>
<path d="M121.14 86.6298H127.749V84.9648H123.057V83.1485H127.144V81.4836H123.057V79.7177H127.699V78.0527H121.14V86.6298Z" fill="#293688"/>
<path d="M146.618 81.0295C146.618 81.7358 146.063 82.2404 145.155 82.2404H143.238V79.7681H145.155C146.063 79.7681 146.618 80.1718 146.618 81.0295ZM148.586 80.9286C148.586 79.1627 147.375 78.0527 145.306 78.0527H141.32V86.6298H143.238V83.8549H144.751L146.618 86.6298H148.838L146.719 83.5522C147.829 83.199 148.586 82.2908 148.586 80.9286Z" fill="#293688"/>
<path d="M133.197 86.6298H135.114V83.3503H139.252V81.5845H135.114V79.7681H139.807V78.0527H133.197V86.6298Z" fill="#293688"/>
<path d="M181.735 83.0476L182.895 80.2727L184.055 83.0476H181.735ZM182.037 78.0023L178.304 86.6802H180.271L181.079 84.763H184.762L185.569 86.6802H187.587L183.854 78.0023H182.037Z" fill="#293688"/>
<path d="M124.771 75.2273L123.409 77.3968H124.822L126.436 75.9337L124.771 75.2273Z" fill="#293688"/>
<path d="M152.975 83.0476L154.135 80.2727L155.296 83.0476H152.975ZM153.277 78.0023L149.544 86.6802H151.512L152.319 84.763H156.002L156.809 86.6802H158.827L155.094 78.0023H153.277Z" fill="#293688"/>
<path d="M174.014 85.0657C172.501 85.0657 171.492 83.8548 171.492 82.3412C171.492 80.8781 172.551 79.6672 174.014 79.6672C174.872 79.6672 175.578 80.0204 176.234 80.6258L177.445 79.2131C176.638 78.4059 175.679 77.9013 174.014 77.9013C171.34 77.9013 169.474 79.9195 169.474 82.3412C169.474 84.4603 170.886 86.1757 172.854 86.6298L171.845 88.0929L173.409 88.7488L174.216 86.7811C175.679 86.7307 176.638 86.1252 177.445 85.2675L176.234 84.0566C175.629 84.6621 175.024 85.0657 174.014 85.0657Z" fill="#293688"/>
<path d="M190.865 78.0527H188.948V86.6298H190.865V78.0527Z" fill="#293688"/>
<path d="M165.942 83.3503L161.856 78.0527H160.09V86.6298H161.957V81.1808L166.195 86.6298H167.809V78.0527H165.942V83.3503Z" fill="#293688"/>
<path d="M196.518 81.534C195.004 81.1304 194.651 80.979 194.651 80.424C194.651 80.0204 195.055 79.6672 195.761 79.6672C196.467 79.6672 197.224 79.9699 198.031 80.5249L199.04 79.1122C198.183 78.4059 197.073 78.0023 195.811 78.0023C194.046 78.0023 192.784 79.0113 192.784 80.5754C192.784 82.2908 193.894 82.7449 195.66 83.199C197.123 83.5521 197.426 83.8044 197.426 84.3089C197.426 84.8135 196.972 85.1162 196.165 85.1162C195.155 85.1162 194.348 84.7126 193.591 84.0567L192.481 85.4189C193.541 86.3271 194.853 86.7812 196.165 86.7812C198.031 86.7812 199.343 85.8225 199.343 84.1071C199.293 82.5935 198.284 81.9881 196.518 81.534Z" fill="#293688"/>
<path d="M85.6197 83.1485H89.7064V81.4836H85.6197V79.7177H90.2614V78.0527H83.7529V86.6298H90.3623V84.9648H85.6197V83.1485Z" fill="#293688"/>
<path d="M75.5802 96.6196L76.7407 93.8446L77.9011 96.6196H75.5802ZM75.883 91.5742L72.1494 100.202H74.1171L74.9244 98.2845H78.6074L79.4147 100.202H81.4328L77.6993 91.5742H75.883Z" fill="#293688"/>
<path d="M72.2493 78.0527H70.332V86.6298H72.2493V78.0527Z" fill="#293688"/>
<path d="M78.0525 84.1071L75.7821 78.0527H73.6631L77.1948 86.7307H78.8598L82.3915 78.0527H80.3229L78.0525 84.1071Z" fill="#293688"/>
<path d="M88.0414 94.551C88.0414 95.2573 87.4864 95.7619 86.5783 95.7619H84.661V93.2897H86.5783C87.436 93.3401 88.0414 93.7437 88.0414 94.551ZM89.9586 94.5005C89.9586 92.6842 88.7478 91.6247 86.6792 91.6247H82.6934V100.202H84.6106V97.4773H86.1242L87.991 100.252H90.2109L88.0919 97.1746C89.2018 96.7205 89.9586 95.8628 89.9586 94.5005Z" fill="#293688"/>
<path d="M56.6098 82.9971C56.6098 84.3594 55.9034 85.0657 54.743 85.0657C53.5826 85.0657 52.8762 84.3594 52.8762 82.9467V78.1031H50.959V82.9971C50.959 85.5198 52.3717 86.8316 54.743 86.8316C57.0638 86.8316 58.527 85.5702 58.527 82.9467V78.1031H56.6098V82.9971Z" fill="#293688"/>
<path d="M52.9768 96.7205H57.0635V95.0555H52.9768V93.2897H57.6185V91.6247H51.0596V100.202H57.7194V98.5368H52.9768V96.7205Z" fill="#293688"/>
<path d="M96.0138 95.2573L93.7434 91.6247H91.6748V100.202H93.5416V94.6519L95.9633 98.2845H96.0138L98.486 94.6014V100.202H100.353V91.6247H98.2842L96.0138 95.2573Z" fill="#293688"/>
<path d="M66.2969 83.3503L62.2102 78.0527H60.4443V86.6298H62.3616V81.1808L66.5492 86.6298H68.1637V78.0527H66.2969V83.3503Z" fill="#293688"/>
<path d="M110.948 78.0527H109.03V86.6298H110.948V78.0527Z" fill="#293688"/>
<path d="M65.2374 96.9223L61.1506 91.6247H59.3848V100.202H61.302V94.7528L65.4896 100.202H67.1041V91.6247H65.2374V96.9223Z" fill="#293688"/>
<path d="M93.9446 79.7681H95.8618C96.77 79.7681 97.3754 80.1717 97.3754 80.979C97.3754 81.6853 96.8204 82.1899 95.9123 82.1899H93.995V79.7681H93.9446ZM93.9446 83.9053H95.4582L97.3249 86.6802H99.5449L97.4259 83.6026C98.5358 83.1989 99.2926 82.3412 99.2926 80.9285C99.2926 79.1627 98.0817 78.1031 96.0132 78.1031H92.0273V86.6802H93.9446V83.9053Z" fill="#293688"/>
<path d="M122.552 91.6247H120.635V100.202H122.552V91.6247Z" fill="#293688"/>
<path d="M112.512 79.8186H115.135V86.6298H117.053V79.8186H119.676V78.0527H112.512V79.8186Z" fill="#293688"/>
<path d="M126.639 96.7205H130.726V95.0555H126.639V93.2897H131.281V91.6247H124.722V100.202H131.331V98.5368H126.639V96.7205Z" fill="#293688"/>
<path d="M104.136 85.1162C103.127 85.1162 102.32 84.7126 101.563 84.0567L100.453 85.4189C101.513 86.3271 102.824 86.7812 104.136 86.7812C106.003 86.7812 107.315 85.8225 107.315 84.1071C107.315 82.5935 106.306 81.9881 104.54 81.534C103.026 81.1304 102.673 80.979 102.673 80.424C102.673 80.0204 103.077 79.6672 103.783 79.6672C104.489 79.6672 105.246 79.9699 106.053 80.5249L107.063 79.1122C106.205 78.4059 105.095 78.0023 103.834 78.0023C102.068 78.0023 100.806 79.0113 100.806 80.5754C100.806 82.2908 101.916 82.7449 103.682 83.199C105.145 83.5521 105.448 83.8044 105.448 84.3089C105.398 84.8135 104.943 85.1162 104.136 85.1162Z" fill="#293688"/>
<path d="M116.598 96.9223L112.511 91.6247H110.745V100.202H112.662V94.7528L116.85 100.202H118.464V91.6247H116.598V96.9223Z" fill="#293688"/>
<path d="M104.69 90.9687H106.103L107.718 89.4551L106.103 88.7488L104.69 90.9687Z" fill="#293688"/>
<path d="M104.338 96.7205H108.425V95.0555H104.338V93.2897H108.98V91.6247H102.472V100.202H109.081V98.5368H104.338V96.7205Z" fill="#293688"/>
</svg>
