<svg width="501" height="454" viewBox="0 0 501 454" fill="none" xmlns="http://www.w3.org/2000/svg">
<path d="M579.176 451.487C555.114 371.374 534.058 291.031 514.62 210.088C495.846 131.905 462.352 58.1434 439.247 -18.9888C315.709 -19.005 192.173 -19.0027 68.6362 -18.9877C56.5561 20.7672 46.6886 60.9342 36.513 101.04C27.1742 137.847 12.714 173.672 3.1963 210.353C-3.11961 234.704 3.01855 255.134 32.8171 264.164C66.7098 274.437 89.9651 278.186 83.6768 313.323C138.894 317.215 153.676 350.879 171.254 388.482C186.944 422.049 205.916 449.378 253.804 451.397C361.627 455.942 471.211 451.51 579.176 451.487Z" stroke="white" stroke-width="0.5" stroke-miterlimit="10"/>
<path d="M127.848 324.801C126.442 295.602 105.341 285.513 79.9617 268.855C53.8058 251.688 51.8298 227.486 57.4855 201.693C65.4335 165.455 76.1493 130.074 81.7739 93.4439C87.5519 55.8127 93.3519 18.2323 102.333 -18.9902" stroke="white" stroke-width="0.5" stroke-miterlimit="10"/>
<path d="M153.649 352.651C151.808 323.302 136.029 299.821 121.293 273.719C106.62 247.732 107.211 219.37 112.876 191.509C127.109 121.523 123.556 51.0168 136.025 -18.9961" stroke="white" stroke-width="0.5" stroke-miterlimit="10"/>
<path d="M171.037 388.006C172.03 352.784 167.172 317.618 163.438 282.567C159.8 248.415 163.04 215.301 168.566 181.387C179.482 114.379 162.273 48.0312 169.72 -18.998" stroke="white" stroke-width="0.5" stroke-miterlimit="10"/>
<path d="M190.518 422.712C199.654 339.041 215.389 255.968 224.977 172.426C232.432 107.476 200.447 45.8868 203.415 -18.999" stroke="white" stroke-width="0.5" stroke-miterlimit="10"/>
<path d="M226.233 447.754C235.349 353.336 274.429 261.33 278.826 166.684C281.816 102.365 237.707 45.2724 237.105 -18.9971" stroke="white" stroke-width="0.5" stroke-miterlimit="10"/>
<path d="M283.521 451.481C284.7 355.64 328.426 262.484 325.749 166.687C323.925 101.449 275.189 46.0814 270.799 -18.9961" stroke="white" stroke-width="0.5" stroke-miterlimit="10"/>
<path d="M342.651 451.48C338.542 357.868 372.703 265.253 366.265 171.87C361.647 104.873 313.056 47.4266 304.49 -18.999" stroke="white" stroke-width="0.5" stroke-miterlimit="10"/>
<path d="M401.78 451.485C391.275 361.127 413.201 270.511 403.584 180.332C396.155 110.664 350.517 49.6865 338.181 -18.999" stroke="white" stroke-width="0.5" stroke-miterlimit="10"/>
<path d="M460.905 451.491C444.06 365.086 452.387 277.472 440.099 190.844C429.75 117.895 387.815 52.6999 371.869 -18.9971" stroke="white" stroke-width="0.5" stroke-miterlimit="10"/>
<path d="M520.038 451.494C498.23 368.822 491.956 284.714 476.578 201.272C462.576 125.305 425.144 55.6715 405.561 -18.9941" stroke="white" stroke-width="0.5" stroke-miterlimit="10"/>
<path d="M447.117 5.8644C318.44 4.10765 189.893 4.28653 61.2168 5.93589" stroke="white" stroke-width="0.5" stroke-miterlimit="10"/>
<path d="M456.615 31.8621C321.905 26.7524 188.883 27.3652 54.1582 32.0006" stroke="white" stroke-width="0.5" stroke-miterlimit="10"/>
<path d="M467.458 59.7015C401.034 54.8791 334.908 49.0815 268.146 49.0791C194.199 49.0757 120.676 55.3038 47.0107 59.8988" stroke="white" stroke-width="0.5" stroke-miterlimit="10"/>
<path d="M479.212 90.2781C412.362 82.5506 345.812 71.784 278.044 71.7574C198.03 71.7263 118.454 83.1542 39.1504 90.5228" stroke="white" stroke-width="0.5" stroke-miterlimit="10"/>
<path d="M491.651 125.376C424.656 115.099 358.6 99.2191 289.91 99.1498C202.713 99.0621 116.112 115.824 30.1184 125.651" stroke="white" stroke-width="0.5" stroke-miterlimit="10"/>
<path d="M503.439 164.419C435.595 151.32 369.867 128.201 299.142 128.066C204.712 127.884 110.818 152.017 18.2988 164.704" stroke="white" stroke-width="0.5" stroke-miterlimit="10"/>
<path d="M514.54 209.724C443.568 195.397 378.154 165.775 303.506 165.654C202.052 165.49 102.447 195.811 3.32201 209.99" stroke="white" stroke-width="0.5" stroke-miterlimit="10"/>
<path d="M527.126 261.145C450.623 250.403 376.571 221.47 297.827 222.539C199.99 223.864 102.251 238.767 5.04492 246.6" stroke="white" stroke-width="0.5" stroke-miterlimit="10"/>
<path d="M541.016 318.29C454.328 312.218 370.215 292.07 282.856 291.27C198.35 290.494 117.298 269.248 33.2598 264.355" stroke="white" stroke-width="0.5" stroke-miterlimit="10"/>
<path d="M558.131 381.341C505.562 380.823 453.245 377.601 400.823 374.613C355.385 372.023 310.025 372.298 264.615 370.591C181.418 367.463 144.762 292.104 67.5869 275.994" stroke="white" stroke-width="0.5" stroke-miterlimit="10"/>
</svg>
