<svg width="203" height="101" viewBox="0 0 203 101" fill="none" xmlns="http://www.w3.org/2000/svg">
<path d="M12.0374 26.531H0V68.813H12.0374V26.531Z" fill="white"/>
<path d="M24.0747 34.3439V68.8137H36.1121V34.3439V0H24.0747V34.3439Z" fill="white"/>
<path d="M101.136 52.5607H121.172V44.1644H101.136V35.2257H123.865V26.8301H91.9023V68.8107H101.136V52.5607Z" fill="white"/>
<path d="M128.711 68.8101L132.546 59.3952H150.302L154.142 68.8101H163.797L145.806 26.5281H137.289L119.291 68.8101H128.711ZM141.423 37.624L147.005 51.2407H135.848L141.423 37.624Z" fill="white"/>
<path d="M201.741 40.8072V40.6866C201.741 32.0493 195.804 26.8301 185.913 26.8301H166.715V68.8107H175.955V55.3822H183.212L192.205 68.8107H203L192.748 53.8204C198.088 51.844 201.741 47.582 201.741 40.8072ZM192.386 41.2833C192.386 44.8214 189.807 47.221 185.31 47.221H175.955V35.1661H185.129C189.632 35.1661 192.386 37.2088 192.386 41.1628V41.2833Z" fill="white"/>
<path d="M67.6298 69.4736C78.9012 69.4736 86.0377 63.2346 86.0377 50.5233V26.8293H76.8036V50.8783C76.8036 57.5386 73.386 60.9568 67.7504 60.9568C62.1087 60.9568 58.6911 57.4187 58.6911 50.583V26.8293H49.457V50.8186C49.4564 63.1749 56.3518 69.4736 67.6298 69.4736Z" fill="white"/>
<path d="M9.78271 99.9654H11.8923V97.0541H15.5088V95.3664H11.8923V93.5702H15.8102L15.8222 91.8892H9.78271V99.9654Z" fill="white"/>
<path d="M4.36991 91.762C1.86851 91.762 0 93.5286 0 95.9095C0 98.3204 1.86851 100.116 4.36991 100.116C6.86528 100.116 8.73379 98.3078 8.73379 95.9095C8.73379 93.5401 6.86528 91.762 4.36991 91.762ZM4.38799 98.3204C3.19455 98.3204 2.16989 97.2831 2.16989 95.9215C2.16989 94.5774 3.1825 93.5467 4.38799 93.5467C5.59951 93.5467 6.56993 94.5774 6.56993 95.9215C6.56993 97.2831 5.59951 98.3204 4.38799 98.3204Z" fill="white"/>
<path d="M42.1076 96.6142L39.769 91.8887H37.4785V99.9655H39.3531V94.8475L41.4265 99.1578H42.7887L44.8501 94.8475L44.8561 99.9655H46.7246V91.8887H44.4342L42.1076 96.6142Z" fill="white"/>
<path d="M36.1286 94.7215C36.1286 92.9253 34.911 91.8892 32.7652 91.8892H29.1367V99.9654H31.2463V97.7292H32.8135L33.9888 99.9654H36.3697L34.688 97.3253C35.6223 96.8431 36.1286 95.945 36.1286 94.7215ZM32.7773 96.0475H31.2463V93.5702H32.7773C33.6332 93.5702 34.1275 93.9988 34.1275 94.7938C34.1275 95.6135 33.6332 96.0475 32.7773 96.0475Z" fill="white"/>
<path d="M67.2366 91.8892H65.127V99.9654H67.2366V91.8892Z" fill="white"/>
<path d="M22.8559 91.8887L19.3901 99.9655H21.554L22.1206 98.537H25.6105L26.165 99.9655H28.4132L25.0258 91.8887H22.8559ZM22.7535 96.9216L23.8806 94.0459L24.9896 96.9216H22.7535Z" fill="white"/>
<path d="M61.6004 96.7527L57.9297 91.8892H56.0732V99.9654H58.0442V95.1374L61.7029 99.9654H63.5473V91.8892H61.5884L61.6004 96.7527Z" fill="white"/>
<path d="M50.4014 96.7649L54.253 96.7522V95.0832H50.4014V93.5697H54.6689V91.8887H48.2979V99.9655H54.7834V98.2838H50.4014V96.7649Z" fill="white"/>
<path d="M71.4313 91.8887L67.9595 99.9655H70.1294L70.6899 98.537H74.1798L74.7343 99.9655H76.9826L73.5951 91.8887H71.4313ZM71.3228 96.9216L72.456 94.0459L73.559 96.9216H71.3228Z" fill="white"/>
<path d="M75.3533 78.6819H73.2437V86.7587H75.3533V78.6819Z" fill="white"/>
<path d="M22.2636 80.2315V78.5498H15.8926V86.6266H22.3781V84.9449H18.0022V83.4326L21.8477 83.42V81.7444H18.0022V80.2315H22.2636Z" fill="white"/>
<path d="M36.5613 80.2128C37.2665 80.2128 38.038 80.6232 38.5684 81.2917L39.786 79.8216C38.9843 78.9657 37.7246 78.4226 36.5312 78.4226C34.0599 78.4226 32.2095 80.2007 32.2095 82.5695C32.2095 84.969 34.0177 86.7773 36.4468 86.7773C37.6462 86.7773 38.9361 86.18 39.798 85.2704L38.5684 83.9438C38.0019 84.5224 37.2303 84.8907 36.5613 84.8907C35.3196 84.8907 34.3733 83.8714 34.3733 82.552C34.3733 81.2133 35.3196 80.2128 36.5613 80.2128Z" fill="white"/>
<path d="M2.66869 83.7153H6.28517V82.0337H2.66869V80.2315H6.58654L6.5986 78.5498H0.559082V86.6266H2.66869V83.7153Z" fill="white"/>
<path d="M12.4034 86.6266H14.7902L13.1086 83.9926C14.0428 83.5038 14.5491 82.6063 14.5491 81.3887C14.5491 79.5859 13.3256 78.5498 11.1858 78.5498H7.55127V86.6266H9.66088V84.3964H11.228L12.4034 86.6266ZM9.66088 82.7087V80.2315H11.1919C12.0478 80.2315 12.542 80.6594 12.542 81.455C12.542 82.2742 12.0478 82.7087 11.1919 82.7087H9.66088Z" fill="white"/>
<path d="M31.1485 78.5498H29.1836L29.1956 83.414L25.5249 78.5498H23.6685V86.6266H25.6394V81.7992L29.2981 86.6266H31.1485V78.5498Z" fill="white"/>
<path d="M103.593 80.8156C103.593 80.4358 103.924 80.2496 104.431 80.2496C105.1 80.2496 106.185 80.6233 107.035 81.1169L107.83 79.4353C106.986 78.8934 105.793 78.5251 104.606 78.5251C102.659 78.5251 101.381 79.4901 101.381 81.0145C101.381 83.9143 105.63 83.0638 105.63 84.4803C105.63 84.9263 105.238 85.1614 104.618 85.1614C103.774 85.1614 102.52 84.6617 101.688 83.9257L100.875 85.5718C101.839 86.3789 103.243 86.8852 104.593 86.8852C106.39 86.8852 107.842 86.0239 107.842 84.3664C107.842 81.4123 103.593 82.1959 103.593 80.8156Z" fill="white"/>
<path d="M100.121 81.5213C100.121 79.7191 98.9032 78.6824 96.7574 78.6824H93.1289V86.7592H95.2385V84.523H96.8057L97.981 86.7592H100.362L98.6802 84.1252C99.6145 83.637 100.121 82.7389 100.121 81.5213ZM96.7695 82.8413H95.2385V80.364H96.7695C97.6254 80.364 98.1196 80.792 98.1196 81.5876C98.1196 82.4073 97.6254 82.8413 96.7695 82.8413Z" fill="white"/>
<path d="M111.019 78.6824H108.915V86.7592H111.019V78.6824Z" fill="white"/>
<path d="M87.4631 83.5647L91.3086 83.5521V81.877H87.4631V80.3635H91.7245V78.6819H85.3535V86.7593H91.8391V85.0776H87.4631V83.5647Z" fill="white"/>
<path d="M122.838 82.1543L120.927 78.6819H118.817L121.796 84.2398V86.7593H123.899V84.1789L126.816 78.6819H124.707L122.838 82.1543Z" fill="white"/>
<path d="M111.886 80.4244H114.279V86.7593H116.388V80.4244H118.811V78.6819H111.886V80.4244Z" fill="white"/>
<path d="M66.162 81.9313L69.8201 86.7593H71.6645V78.6819H69.7056L69.7176 83.5466L66.0415 78.6819H64.1904V86.7593H66.162V81.9313Z" fill="white"/>
<path d="M62.7508 83.4321V78.6819H60.6412V83.4321C60.6412 84.4803 60.0203 85.1138 59.1222 85.1138C58.2121 85.1138 57.531 84.4688 57.531 83.4321V78.6819H55.4214V83.4321C55.4214 85.5538 56.874 86.91 59.1102 86.91C61.3464 86.91 62.7508 85.5538 62.7508 83.4321Z" fill="white"/>
<path d="M80.3993 84.523L78.3861 78.6824H76.1138L79.248 86.7592H81.436L84.5944 78.6824H82.4245L80.3993 84.523Z" fill="white"/>
<path d="M46.0668 81.8463H42.8059V78.5493H40.6963V86.6267H42.8059V83.528H46.0668V86.6267H48.1764V78.5493H46.0668V81.8463Z" fill="white"/>
</svg>
