<svg width="132" height="64" viewBox="0 0 132 64" fill="none" xmlns="http://www.w3.org/2000/svg">
<path d="M8.44207 17.4598H0.707031V44.3726H8.44207V17.4598Z" fill="white"/>
<path d="M16.209 22.446V44.4046H23.944V22.446V0.583328H16.209V22.446Z" fill="white"/>
<path d="M113.952 22.9574H119.865C122.773 22.9574 124.531 24.2679 124.531 26.761V26.825C124.531 29.0624 122.869 30.5966 119.993 30.5966H113.984V22.9574H113.952ZM113.952 35.8385H118.618L124.404 44.4046H131.34L124.723 34.8477C128.175 33.6011 130.509 30.8843 130.509 26.5693V26.4734C130.509 20.9757 126.673 17.6516 120.312 17.6516H107.975V44.3726H113.92V35.8385H113.952Z" fill="white"/>
<path d="M65.784 34.0486H78.697V28.7108H65.784V23.0214H80.423V17.6516H59.8389V44.4046H65.784V34.0486Z" fill="white"/>
<path d="M56.0987 32.7381V17.6516H50.1536V32.9618C50.1536 37.2129 47.9481 39.3864 44.3363 39.3864C40.6926 39.3864 38.5191 37.149 38.5191 32.7701V17.6516H32.542V32.9299C32.542 40.7928 36.9848 44.7882 44.2404 44.7882C51.496 44.8201 56.0987 40.8247 56.0987 32.7381Z" fill="white"/>
<path d="M91.7369 24.5236L95.3168 33.1856H88.1251L91.7369 24.5236ZM97.4263 38.3955L99.8875 44.4046H106.088L94.5177 17.4917H89.052L77.4814 44.4046H83.5544L86.0156 38.3955H97.4263Z" fill="white"/>
<path d="M128.783 52.8747H131.372V51.82H128.783V50.7013H131.724V49.6465H127.568V55.0802H131.756V54.0254H128.783V52.8747Z" fill="white"/>
<path d="M77.0029 55.0802H81.1901V54.0254H78.2175V52.8747H80.8065V51.82H78.2175V50.7013H81.1581V49.6465H77.0029V55.0802Z" fill="white"/>
<path d="M93.1442 51.5323C93.1442 51.9798 92.7926 52.2994 92.2173 52.2994H91.0027V50.7332H92.2173C92.7926 50.7332 93.1442 50.9889 93.1442 51.5323ZM94.3908 51.4684C94.3908 50.3497 93.6236 49.6465 92.3132 49.6465H89.7881V55.0802H91.0027V53.3222H91.9616L93.1442 55.0802H94.5506L93.2081 53.1304C93.9113 52.9067 94.3908 52.3314 94.3908 51.4684Z" fill="white"/>
<path d="M84.6416 55.0802H85.8562V53.0026H88.4772V51.8839H85.8562V50.7332H88.8288V49.6465H84.6416V55.0802Z" fill="white"/>
<path d="M115.39 52.8108L116.125 51.0529L116.861 52.8108H115.39ZM115.582 49.6145L113.217 55.1122H114.463L114.975 53.8976H117.308L117.819 55.1122H119.098L116.733 49.6145H115.582Z" fill="white"/>
<path d="M79.3034 47.8566L78.4404 49.231H79.3354L80.3582 48.3041L79.3034 47.8566Z" fill="white"/>
<path d="M97.1705 52.8108L97.9057 51.0529L98.6408 52.8108H97.1705ZM97.3623 49.6145L94.9971 55.1122H96.2436L96.755 53.8976H99.0883L99.5997 55.1122H100.878L98.513 49.6145H97.3623Z" fill="white"/>
<path d="M110.5 54.0893C109.541 54.0893 108.902 53.3222 108.902 52.3633C108.902 51.4364 109.573 50.6693 110.5 50.6693C111.043 50.6693 111.491 50.893 111.906 51.2766L112.673 50.3816C112.162 49.8702 111.554 49.5506 110.5 49.5506C108.806 49.5506 107.623 50.8291 107.623 52.3633C107.623 53.7058 108.518 54.7925 109.765 55.0802L109.125 56.0071L110.116 56.4226L110.628 55.1761C111.554 55.1441 112.162 54.7606 112.673 54.2172L111.906 53.4501C111.523 53.8336 111.139 54.0893 110.5 54.0893Z" fill="white"/>
<path d="M121.176 49.6465H119.961V55.0802H121.176V49.6465Z" fill="white"/>
<path d="M105.386 53.0026L102.797 49.6465H101.679V55.0802H102.861V51.6282L105.546 55.0802H106.569V49.6465H105.386V53.0026Z" fill="white"/>
<path d="M124.756 51.852C123.797 51.5963 123.574 51.5004 123.574 51.1488C123.574 50.8931 123.829 50.6693 124.277 50.6693C124.724 50.6693 125.204 50.8611 125.715 51.2127L126.354 50.3177C125.811 49.8703 125.108 49.6145 124.309 49.6145C123.19 49.6145 122.391 50.2538 122.391 51.2447C122.391 52.3314 123.094 52.6191 124.213 52.9067C125.14 53.1305 125.332 53.2903 125.332 53.6099C125.332 53.9296 125.044 54.1213 124.533 54.1213C123.893 54.1213 123.382 53.8656 122.902 53.4501L122.199 54.3131C122.87 54.8884 123.701 55.1761 124.533 55.1761C125.715 55.1761 126.546 54.5688 126.546 53.4821C126.514 52.5232 125.875 52.1396 124.756 51.852Z" fill="white"/>
<path d="M54.5 52.8747H57.089V51.82H54.5V50.7013H57.4406V49.6465H53.3174V55.0802H57.5045V54.0254H54.5V52.8747Z" fill="white"/>
<path d="M48.1403 61.4089L48.8754 59.651L49.6106 61.4089H48.1403ZM48.3321 58.2126L45.9668 63.6783H47.2134L47.7248 62.4637H50.0581L50.5695 63.6783H51.848L49.4827 58.2126H48.3321Z" fill="white"/>
<path d="M46.03 49.6465H44.8154V55.0802H46.03V49.6465Z" fill="white"/>
<path d="M49.7066 53.482L48.2682 49.6465H46.9258L49.1632 55.1441H50.218L52.4554 49.6465H51.1449L49.7066 53.482Z" fill="white"/>
<path d="M56.0346 60.0984C56.0346 60.5459 55.683 60.8655 55.1076 60.8655H53.893V59.2993H55.1076C55.651 59.3313 56.0346 59.587 56.0346 60.0984ZM57.2492 60.0665C57.2492 58.9158 56.482 58.2446 55.1716 58.2446H52.6465V63.6783H53.8611V61.9523H54.82L56.0026 63.7102H57.409L56.0665 61.7605C56.7697 61.4728 57.2492 60.9295 57.2492 60.0665Z" fill="white"/>
<path d="M36.1218 52.7789C36.1218 53.6419 35.6744 54.0894 34.9392 54.0894C34.2041 54.0894 33.7566 53.6419 33.7566 52.7469V49.6785H32.542V52.7789C32.542 54.3771 33.437 55.2081 34.9392 55.2081C36.4095 55.2081 37.3364 54.409 37.3364 52.7469V49.6785H36.1218V52.7789Z" fill="white"/>
<path d="M33.821 61.4728H36.41V60.4181H33.821V59.2993H36.7616V58.2446H32.6064V63.6783H36.8256V62.6235H33.821V61.4728Z" fill="white"/>
<path d="M61.0857 60.5459L59.6474 58.2446H58.3369V63.6783H59.5195V60.1623L61.0538 62.4637H61.0857L62.6519 60.1304V63.6783H63.8345V58.2446H62.5241L61.0857 60.5459Z" fill="white"/>
<path d="M42.2595 53.0026L39.6705 49.6465H38.5518V55.0802H39.7663V51.6282L42.4193 55.0802H43.4421V49.6465H42.2595V53.0026Z" fill="white"/>
<path d="M70.5456 49.6465H69.3311V55.0802H70.5456V49.6465Z" fill="white"/>
<path d="M41.5876 61.6007L38.9986 58.2446H37.8799V63.6783H39.0945V60.2263L41.7474 63.6783H42.7702V58.2446H41.5876V61.6007Z" fill="white"/>
<path d="M59.7742 50.7333H60.9888C61.5641 50.7333 61.9476 50.989 61.9476 51.5004C61.9476 51.9479 61.5961 52.2675 61.0207 52.2675H59.8061V50.7333H59.7742ZM59.7742 53.3542H60.7331L61.9157 55.1122H63.3221L61.9796 53.1625C62.6828 52.9068 63.1622 52.3634 63.1622 51.4684C63.1622 50.3497 62.3951 49.6785 61.0846 49.6785H58.5596V55.1122H59.7742V53.3542Z" fill="white"/>
<path d="M77.8972 58.2446H76.6826V63.6783H77.8972V58.2446Z" fill="white"/>
<path d="M71.5371 50.7652H73.1992V55.0802H74.4138V50.7652H76.0759V49.6465H71.5371V50.7652Z" fill="white"/>
<path d="M80.4871 61.4728H83.0761V60.4181H80.4871V59.2993H83.4276V58.2446H79.2725V63.6783H83.4596V62.6235H80.4871V61.4728Z" fill="white"/>
<path d="M66.2308 54.1213C65.5915 54.1213 65.0801 53.8656 64.6006 53.4501L63.8975 54.3131C64.5687 54.8884 65.3997 55.1761 66.2308 55.1761C67.4134 55.1761 68.2444 54.5688 68.2444 53.4821C68.2444 52.5232 67.6052 52.1396 66.4865 51.852C65.5276 51.5963 65.3038 51.5004 65.3038 51.1488C65.3038 50.8931 65.5595 50.6693 66.007 50.6693C66.4545 50.6693 66.9339 50.8611 67.4454 51.2127L68.0846 50.3177C67.5412 49.8703 66.8381 49.6145 66.039 49.6145C64.9203 49.6145 64.1212 50.2538 64.1212 51.2447C64.1212 52.3314 64.8244 52.6191 65.9431 52.9067C66.87 53.1305 67.0618 53.2903 67.0618 53.6099C67.0298 53.9296 66.7422 54.1213 66.2308 54.1213Z" fill="white"/>
<path d="M74.1257 61.6007L71.5367 58.2446H70.418V63.6783H71.6326V60.2263L74.2855 63.6783H75.3083V58.2446H74.1257V61.6007Z" fill="white"/>
<path d="M66.582 57.829H67.477L68.4998 56.8702L67.477 56.4227L66.582 57.829Z" fill="white"/>
<path d="M66.3594 61.4728H68.9484V60.4181H66.3594V59.2993H69.3V58.2446H65.1768V63.6783H69.3639V62.6235H66.3594V61.4728Z" fill="white"/>
</svg>
