<svg width="349" height="280" viewBox="0 0 349 280" fill="none" xmlns="http://www.w3.org/2000/svg">
<mask id="mask0" mask-type="alpha" maskUnits="userSpaceOnUse" x="-133" y="-291" width="419" height="519">
<path d="M196.84 -290.492C140.951 -251.076 84.1046 -213.931 26.3735 -177.885C-29.3887 -143.068 -77.9092 -97.9836 -131.735 -60.0811C-99.7379 35.7207 -67.727 131.517 -35.7063 227.31C-1.74822 226.376 31.9561 223.621 65.6928 221.12C96.6547 218.825 128.182 220.755 159.092 218.631C179.612 217.22 193.864 207.166 193.145 181.719C192.33 152.775 189.211 133.771 218.087 129.543C206.798 85.7161 229.073 65.5307 253.678 42.1567C275.643 21.292 291.919 -0.500841 281.076 -38.1584C256.663 -122.948 224.832 -206.777 196.84 -290.492Z" stroke="white" stroke-opacity="0.3" stroke-width="0.5" stroke-miterlimit="10"/>
<path d="M215.543 92.3174C193.264 100.973 190.908 119.951 184.567 143.947C178.032 168.678 159.777 176.481 138.31 178.778C108.15 182.005 77.9372 182.862 48.0747 187.992C17.3964 193.262 -13.2482 198.502 -44.4395 201.182" stroke="white" stroke-opacity="0.3" stroke-width="0.5" stroke-miterlimit="10"/>
<path d="M230.455 65.0927C208.173 74.125 194.053 92.4451 177.63 110.636C161.281 128.747 139.134 135.637 116.061 138.463C58.1025 145.56 4.34917 166.584 -53.1733 175.055" stroke="white" stroke-opacity="0.3" stroke-width="0.5" stroke-miterlimit="10"/>
<path d="M253.365 42.4484C225.795 50.8038 199.784 63.683 173.571 75.6602C148.031 87.3305 121.513 93.398 93.7824 97.9009C38.9929 106.798 -7.99793 137.334 -61.9055 148.927" stroke="white" stroke-opacity="0.3" stroke-width="0.5" stroke-miterlimit="10"/>
<path d="M275.231 18.3495C207.981 32.9439 139.485 42.2674 72.2175 56.4787C19.9208 67.5264 -19.5514 108.287 -70.6362 122.798" stroke="white" stroke-opacity="0.3" stroke-width="0.5" stroke-miterlimit="10"/>
<path d="M285.395 -15.8345C209.816 1.56066 128.344 -4.9046 53.8112 16.2087C3.16025 30.556 -29.6834 79.5532 -79.3652 96.6731" stroke="white" stroke-opacity="0.3" stroke-width="0.5" stroke-miterlimit="10"/>
<path d="M273.443 -61.2229C198.817 -37.3047 115.25 -47.0747 41.6574 -20.1774C-8.45892 -1.85971 -38.7665 50.2789 -88.0933 70.5457" stroke="white" stroke-opacity="0.3" stroke-width="0.5" stroke-miterlimit="10"/>
<path d="M258.12 -107.077C186.592 -79.6352 105.923 -82.1279 35.1771 -52.9402C-15.5793 -31.9999 -47.5362 20.5655 -96.8267 44.4189" stroke="white" stroke-opacity="0.3" stroke-width="0.5" stroke-miterlimit="10"/>
<path d="M242.804 -152.93C175.458 -121.372 99.5083 -114.895 32.0702 -84.0713C-20.0291 -60.2594 -55.4892 -9.06964 -105.555 18.2935" stroke="white" stroke-opacity="0.3" stroke-width="0.5" stroke-miterlimit="10"/>
<path d="M-96.8024 -86.7266C-65.8604 19.0591 -30.9183 122.052 7.58411 225.324" stroke="white" stroke-opacity="0.3" stroke-width="0.5" stroke-miterlimit="10"/>
<path d="M-78.0236 -102.346C-64.5524 -49.5883 -51.9144 3.19197 -34.6179 54.9629C-15.4603 112.307 8.41964 167.706 31.0698 223.639" stroke="white" stroke-opacity="0.3" stroke-width="0.5" stroke-miterlimit="10"/>
<path d="M-57.359 -119.384C-46.03 -65.5421 -37.1354 -11.1459 -19.5969 41.4118C1.11083 103.466 30.5915 162.213 56.8535 221.8" stroke="white" stroke-opacity="0.3" stroke-width="0.5" stroke-miterlimit="10"/>
<path d="M-33.3642 -138.124C-23.9749 -83.5098 -19.1734 -28.1718 -1.42905 25.1121C21.0962 92.7519 56.533 155.564 86.4348 219.701" stroke="white" stroke-opacity="0.3" stroke-width="0.5" stroke-miterlimit="10"/>
<path d="M-6.14296 -157.382C1.278 -101.378 0.380585 -44.4196 18.6012 10.4593C42.9282 83.7326 85.9702 150.29 119.781 218.747" stroke="white" stroke-opacity="0.3" stroke-width="0.5" stroke-miterlimit="10"/>
<path d="M26.1118 -177.729C33.3909 -118.981 27.3697 -60.5799 46.6176 -2.66227C72.7778 76.0529 122.099 145.435 158.777 218.628" stroke="white" stroke-opacity="0.3" stroke-width="0.5" stroke-miterlimit="10"/>
<path d="M62.726 -200.813C74.2182 -138.705 70.9693 -73.7845 92.2014 -12.9988C118.579 62.5256 155.46 134.456 186.721 207.805" stroke="white" stroke-opacity="0.3" stroke-width="0.5" stroke-miterlimit="10"/>
<path d="M103.44 -226.387C121.192 -157.592 127.363 -87.1454 149.377 -19.1958C170.672 46.536 175.198 114.893 193.179 181.328" stroke="white" stroke-opacity="0.3" stroke-width="0.5" stroke-miterlimit="10"/>
<path d="M147.898 -255.998C161.117 -215.099 172.174 -173.695 183.441 -132.27C193.205 -96.3634 205.171 -61.2602 215.614 -25.605C234.745 39.7212 185.805 87.6722 193.31 151.692" stroke="white" stroke-opacity="0.3" stroke-width="0.5" stroke-miterlimit="10"/>
</mask>
<g mask="url(#mask0)">
<rect x="-7.00049" width="351" height="171" fill="white" fill-opacity="0.5"/>
</g>
</svg>
