<svg width="108" height="54" viewBox="0 0 108 54" fill="none" xmlns="http://www.w3.org/2000/svg">
<path d="M6.40415 14.115H0V36.6099H6.40415V14.115Z" fill="#ED2939"/>
<path d="M12.8086 18.2716V36.6102H19.2127V18.2716V0H12.8086V18.2716Z" fill="#ED2939"/>
<path d="M53.8067 27.9633H64.4659V23.4964H53.8067V18.7408H65.899V14.2741H48.894V36.6087H53.8067V27.9633Z" fill="#ED2939"/>
<path d="M68.4774 36.6083L70.5172 31.5994H79.9639L82.0069 36.6083H87.1438L77.572 14.1135H73.0409L63.4653 36.6083H68.4774ZM75.2404 20.0167L78.2102 27.261H72.2742L75.2404 20.0167Z" fill="#ED2939"/>
<path d="M107.33 21.7102V21.6461C107.33 17.0508 104.172 14.2741 98.9095 14.2741H88.6958V36.6087H93.6117V29.4644H97.4726L102.257 36.6087H108L102.546 28.6335C105.387 27.582 107.33 25.3146 107.33 21.7102ZM102.354 21.9635C102.354 23.8459 100.981 25.1225 98.5889 25.1225H93.6117V18.709H98.4927C100.888 18.709 102.354 19.7958 102.354 21.8994V21.9635Z" fill="#ED2939"/>
<path d="M35.9803 36.9614C41.9769 36.9614 45.7736 33.6421 45.7736 26.8794V14.2738H40.8609V27.0683C40.8609 30.6118 39.0427 32.4303 36.0444 32.4303C33.0429 32.4303 31.2247 30.5479 31.2247 26.9112V14.2738H26.312V27.0366C26.3117 33.6104 29.9802 36.9614 35.9803 36.9614Z" fill="#ED2939"/>
<path d="M5.2041 53.1835H6.32646V51.6347H8.25049V50.7368H6.32646V49.7812H8.41083L8.41724 48.8868H5.2041V53.1835Z" fill="#ED2939"/>
<path d="M2.32488 48.8192C0.994085 48.8192 0 49.7591 0 51.0258C0 52.3085 0.994085 53.2638 2.32488 53.2638C3.65246 53.2638 4.64655 52.3017 4.64655 51.0258C4.64655 49.7652 3.65246 48.8192 2.32488 48.8192ZM2.3345 52.3085C1.69957 52.3085 1.15442 51.7566 1.15442 51.0322C1.15442 50.3171 1.69315 49.7687 2.3345 49.7687C2.97905 49.7687 3.49533 50.3171 3.49533 51.0322C3.49533 51.7566 2.97905 52.3085 2.3345 52.3085Z" fill="#ED2939"/>
<path d="M22.4022 51.4007L21.158 48.8866H19.9395V53.1836H20.9367V50.4608L22.0399 52.7539H22.7646L23.8613 50.4608L23.8645 53.1836H24.8586V48.8866H23.64L22.4022 51.4007Z" fill="#ED2939"/>
<path d="M19.2213 50.3937C19.2213 49.4381 18.5735 48.8868 17.4319 48.8868H15.5015V53.1835H16.6238V51.9938H17.4576L18.0829 53.1835H19.3495L18.4549 51.779C18.9519 51.5225 19.2213 51.0446 19.2213 50.3937ZM17.4383 51.0992H16.6238V49.7812H17.4383C17.8937 49.7812 18.1566 50.0092 18.1566 50.4322C18.1566 50.8683 17.8937 51.0992 17.4383 51.0992Z" fill="#ED2939"/>
<path d="M35.7713 48.8868H34.6489V53.1835H35.7713V48.8868Z" fill="#ED2939"/>
<path d="M12.1603 48.8866L10.3164 53.1836H11.4676L11.7691 52.4236H13.6257L13.9208 53.1836H15.1169L13.3147 48.8866H12.1603ZM12.1058 51.5642L12.7054 50.0343L13.2955 51.5642H12.1058Z" fill="#ED2939"/>
<path d="M32.7726 51.4744L30.8197 48.8868H29.832V53.1835H30.8806V50.6149L32.8271 53.1835H33.8084V48.8868H32.7662L32.7726 51.4744Z" fill="#ED2939"/>
<path d="M26.8145 51.4808L28.8636 51.4741V50.5862H26.8145V49.7809H29.0848V48.8866H25.6953V53.1836H29.1458V52.2889H26.8145V51.4808Z" fill="#ED2939"/>
<path d="M38.0033 48.8866L36.1562 53.1836H37.3107L37.6089 52.4236H39.4656L39.7606 53.1836H40.9567L39.1545 48.8866H38.0033ZM37.9456 51.5642L38.5485 50.0343L39.1353 51.5642H37.9456Z" fill="#ED2939"/>
<path d="M40.0896 41.8603H38.9673V46.1573H40.0896V41.8603Z" fill="#ED2939"/>
<path d="M11.8446 42.6847V41.79H8.45508V46.0871H11.9055V45.1924H9.57743V44.3878L11.6233 44.3811V43.4896H9.57743V42.6847H11.8446Z" fill="#ED2939"/>
<path d="M19.4515 42.6748C19.8267 42.6748 20.2371 42.8932 20.5193 43.2488L21.1671 42.4667C20.7406 42.0113 20.0704 41.7224 19.4355 41.7224C18.1207 41.7224 17.1362 42.6684 17.1362 43.9286C17.1362 45.2052 18.0982 46.1672 19.3906 46.1672C20.0287 46.1672 20.7149 45.8494 21.1735 45.3655L20.5193 44.6597C20.2179 44.9676 19.8074 45.1635 19.4515 45.1635C18.7909 45.1635 18.2874 44.6213 18.2874 43.9193C18.2874 43.2071 18.7909 42.6748 19.4515 42.6748Z" fill="#ED2939"/>
<path d="M1.42021 44.5382H3.34424V43.6435H1.42021V42.6847H3.50458L3.51099 41.79H0.297852V46.0871H1.42021V44.5382Z" fill="#ED2939"/>
<path d="M6.5985 46.0871H7.86837L6.97369 44.6857C7.47073 44.4257 7.7401 43.9482 7.7401 43.3004C7.7401 42.3413 7.08913 41.79 5.95075 41.79H4.01709V46.0871H5.13944V44.9006H5.97319L6.5985 46.0871ZM5.13944 44.0027V42.6847H5.95395C6.40931 42.6847 6.67226 42.9124 6.67226 43.3357C6.67226 43.7715 6.40931 44.0027 5.95395 44.0027H5.13944Z" fill="#ED2939"/>
<path d="M16.5718 41.79H15.5264L15.5329 44.3779L13.58 41.79H12.5923V46.0871H13.6409V43.5188L15.5874 46.0871H16.5718V41.79Z" fill="#ED2939"/>
<path d="M55.1132 42.9955C55.1132 42.7935 55.2896 42.6944 55.559 42.6944C55.9149 42.6944 56.4921 42.8932 56.9443 43.1558L57.3676 42.2611C56.9186 41.9729 56.2837 41.7769 55.652 41.7769C54.6162 41.7769 53.9364 42.2903 53.9364 43.1013C53.9364 44.6441 56.1971 44.1916 56.1971 44.9452C56.1971 45.1825 55.9887 45.3075 55.6584 45.3075C55.2094 45.3075 54.5424 45.0417 54.0999 44.6502L53.667 45.5259C54.1801 45.9553 54.9272 46.2247 55.6455 46.2247C56.6011 46.2247 57.374 45.7664 57.374 44.8846C57.374 43.3129 55.1132 43.7298 55.1132 42.9955Z" fill="#ED2939"/>
<path d="M53.2662 43.371C53.2662 42.4122 52.6184 41.8606 51.4768 41.8606H49.5464V46.1577H50.6687V44.968H51.5025L52.1278 46.1577H53.3945L52.4998 44.7563C52.9968 44.4966 53.2662 44.0188 53.2662 43.371ZM51.4833 44.0733H50.6687V42.7553H51.4833C51.9386 42.7553 52.2016 42.983 52.2016 43.4063C52.2016 43.8424 51.9386 44.0733 51.4833 44.0733Z" fill="#ED2939"/>
<path d="M59.064 41.8606H57.9448V46.1577H59.064V41.8606Z" fill="#ED2939"/>
<path d="M46.532 44.4581L48.5779 44.4513V43.5602H46.532V42.755H48.7992V41.8603H45.4097V46.1576H48.8601V45.263H46.532V44.4581Z" fill="#ED2939"/>
<path d="M65.3523 43.7077L64.3357 41.8603H63.2134L64.7978 44.8172V46.1576H65.917V44.7848L67.469 41.8603H66.3467L65.3523 43.7077Z" fill="#ED2939"/>
<path d="M59.5254 42.7874H60.7985V46.1576H61.9208V42.7874H63.2099V41.8603H59.5254V42.7874Z" fill="#ED2939"/>
<path d="M35.1993 43.5891L37.1455 46.1576H38.1267V41.8603H37.0845L37.091 44.4485L35.1352 41.8603H34.1504V46.1576H35.1993V43.5891Z" fill="#ED2939"/>
<path d="M33.3842 44.3875V41.8603H32.2619V44.3875C32.2619 44.9452 31.9316 45.2822 31.4538 45.2822C30.9696 45.2822 30.6072 44.9391 30.6072 44.3875V41.8603H29.4849V44.3875C29.4849 45.5163 30.2577 46.2378 31.4474 46.2378C32.6371 46.2378 33.3842 45.5163 33.3842 44.3875Z" fill="#ED2939"/>
<path d="M42.7736 44.968L41.7026 41.8606H40.4937L42.1611 46.1577H43.3252L45.0055 41.8606H43.8511L42.7736 44.968Z" fill="#ED2939"/>
<path d="M24.5086 43.5438H22.7737V41.7897H21.6514V46.0871H22.7737V44.4385H24.5086V46.0871H25.6309V41.7897H24.5086V43.5438Z" fill="#ED2939"/>
</svg>
