<svg width="14" height="15" viewBox="0 0 14 15" fill="none" xmlns="http://www.w3.org/2000/svg">
<rect x="0.451172" y="0.0166016" width="1.21739" height="14" fill="#002395"/>
<rect x="12.627" y="0.0166016" width="1.21739" height="14" fill="#002395"/>
<rect x="13.8423" y="12.7993" width="1.21739" height="13.3913" transform="rotate(90 13.8423 12.7993)" fill="#002395"/>
<rect x="13.8423" y="0.0166016" width="1.21739" height="13.3913" transform="rotate(90 13.8423 0.0166016)" fill="#002395"/>
<rect x="4.10352" y="5.49463" width="1.21739" height="1.21739" transform="rotate(90 4.10352 5.49463)" fill="#002395"/>
<rect x="4.10352" y="7.92969" width="1.21739" height="1.21739" transform="rotate(90 4.10352 7.92969)" fill="#002395"/>
<rect x="4.10352" y="10.3643" width="1.21739" height="1.21739" transform="rotate(90 4.10352 10.3643)" fill="#002395"/>
<rect x="6.53711" y="5.49512" width="1.21739" height="1.21739" transform="rotate(90 6.53711 5.49512)" fill="#002395"/>
<rect x="6.53711" y="7.92871" width="1.21739" height="1.21739" transform="rotate(90 6.53711 7.92871)" fill="#002395"/>
<rect x="6.53711" y="10.3643" width="1.21739" height="1.21739" transform="rotate(90 6.53711 10.3643)" fill="#002395"/>
<rect x="8.97461" y="5.49512" width="1.21739" height="1.21739" transform="rotate(90 8.97461 5.49512)" fill="#002395"/>
<rect x="8.97461" y="7.92871" width="1.21739" height="1.21739" transform="rotate(90 8.97461 7.92871)" fill="#002395"/>
<rect x="8.97461" y="10.3643" width="1.21739" height="1.21739" transform="rotate(90 8.97461 10.3643)" fill="#002395"/>
<rect x="11.4077" y="5.49463" width="1.21739" height="1.21739" transform="rotate(90 11.4077 5.49463)" fill="#002395"/>
<rect x="11.4077" y="7.92969" width="1.21739" height="1.21739" transform="rotate(90 11.4077 7.92969)" fill="#002395"/>
<rect x="11.4077" y="10.3643" width="1.21739" height="1.21739" transform="rotate(90 11.4077 10.3643)" fill="#002395"/>
<rect x="13.8423" y="1.23389" width="3.04348" height="13.3913" transform="rotate(90 13.8423 1.23389)" fill="#002395"/>
</svg>
