<svg width="14" height="14" viewBox="0 0 14 14" fill="none" xmlns="http://www.w3.org/2000/svg">
<rect width="1.21739" height="14" fill="white"/>
<rect x="12.1758" width="1.21739" height="14" fill="white"/>
<rect x="13.3911" y="12.7826" width="1.21739" height="13.3913" transform="rotate(90 13.3911 12.7826)" fill="white"/>
<rect x="13.3911" width="1.21739" height="13.3913" transform="rotate(90 13.3911 0)" fill="white"/>
<rect x="3.65234" y="5.47826" width="1.21739" height="1.21739" transform="rotate(90 3.65234 5.47826)" fill="white"/>
<rect x="3.65234" y="7.91304" width="1.21739" height="1.21739" transform="rotate(90 3.65234 7.91304)" fill="white"/>
<rect x="3.65234" y="10.3478" width="1.21739" height="1.21739" transform="rotate(90 3.65234 10.3478)" fill="white"/>
<rect x="6.08594" y="5.47852" width="1.21739" height="1.21739" transform="rotate(90 6.08594 5.47852)" fill="white"/>
<rect x="6.08594" y="7.91211" width="1.21739" height="1.21739" transform="rotate(90 6.08594 7.91211)" fill="white"/>
<rect x="6.08594" y="10.3477" width="1.21739" height="1.21739" transform="rotate(90 6.08594 10.3477)" fill="white"/>
<rect x="8.52344" y="5.47852" width="1.21739" height="1.21739" transform="rotate(90 8.52344 5.47852)" fill="white"/>
<rect x="8.52344" y="7.91211" width="1.21739" height="1.21739" transform="rotate(90 8.52344 7.91211)" fill="white"/>
<rect x="8.52344" y="10.3477" width="1.21739" height="1.21739" transform="rotate(90 8.52344 10.3477)" fill="white"/>
<rect x="10.9565" y="5.47826" width="1.21739" height="1.21739" transform="rotate(90 10.9565 5.47826)" fill="white"/>
<rect x="10.9565" y="7.91304" width="1.21739" height="1.21739" transform="rotate(90 10.9565 7.91304)" fill="white"/>
<rect x="10.9565" y="10.3478" width="1.21739" height="1.21739" transform="rotate(90 10.9565 10.3478)" fill="white"/>
<rect x="13.3911" y="1.21739" width="3.04348" height="13.3913" transform="rotate(90 13.3911 1.21739)" fill="white"/>
</svg>
