<svg width="15" height="15" viewBox="0 0 15 15" fill="none" xmlns="http://www.w3.org/2000/svg">
<path d="M12.4009 9.06684C11.6385 8.30444 10.731 7.74004 9.74091 7.39838C10.8014 6.668 11.498 5.44565 11.498 4.06348C11.498 1.83204 9.68261 0.0166016 7.45117 0.0166016C5.21973 0.0166016 3.4043 1.83204 3.4043 4.06348C3.4043 5.44565 4.10099 6.668 5.16146 7.39838C4.17134 7.74004 3.26386 8.30444 2.50143 9.06684C1.17931 10.389 0.451172 12.1468 0.451172 14.0166H1.54492C1.54492 10.7599 4.19445 8.11035 7.45117 8.11035C10.7079 8.11035 13.3574 10.7599 13.3574 14.0166H14.4512C14.4512 12.1468 13.723 10.389 12.4009 9.06684ZM7.45117 7.0166C5.82282 7.0166 4.49805 5.69185 4.49805 4.06348C4.49805 2.4351 5.82282 1.11035 7.45117 1.11035C9.07952 1.11035 10.4043 2.4351 10.4043 4.06348C10.4043 5.69185 9.07952 7.0166 7.45117 7.0166Z" fill="#002395"/>
</svg>
