<svg width="64" height="56" viewBox="0 0 64 56" fill="none" xmlns="http://www.w3.org/2000/svg">
<path d="M52.6066 0.128906C47.7857 0.128906 43.9766 3.99756 43.9766 8.8185C43.9766 13.6394 47.8452 17.4486 52.6066 17.4486C57.3681 17.4486 61.2962 13.5799 61.2962 8.75898C61.2962 3.93804 57.4276 0.128906 52.6066 0.128906ZM52.6066 15.544C48.857 15.544 45.8216 12.5086 45.8216 8.75898C45.8216 5.00936 48.9165 2.03347 52.6066 2.03347C56.3563 2.03347 59.3917 5.06888 59.3917 8.8185C59.3917 12.5681 56.3563 15.544 52.6066 15.544Z" fill="white"/>
<path d="M55.4618 10.3832C55.4004 10.2091 55.4004 10.093 55.2776 9.91888C55.2161 9.8028 55.1547 9.62869 55.0319 9.51262C54.909 9.39654 54.8476 9.28047 54.7248 9.16439C54.602 9.04831 54.4791 8.93224 54.2949 8.8742C54.172 8.75813 53.9878 8.70009 53.865 8.64205C53.6807 8.58401 53.5579 8.46794 53.3736 8.4099C53.1894 8.35186 53.0051 8.29382 52.8823 8.23579C52.8209 8.23579 52.698 8.17775 52.6366 8.11971C52.5752 8.06167 52.4524 8.06167 52.3909 8.00364C52.3295 7.9456 52.2067 7.9456 52.1453 7.88756C52.0839 7.82952 52.0224 7.77149 51.961 7.71345C51.8996 7.65541 51.8382 7.59737 51.8382 7.4813C51.7768 7.42326 51.7768 7.30718 51.7768 7.24915C51.7768 7.13307 51.7768 7.07503 51.7768 6.95896C51.7768 6.90092 51.8382 6.78484 51.8382 6.72681C51.8996 6.66877 51.8996 6.55269 51.961 6.49466C52.0224 6.43662 52.0839 6.37858 52.1453 6.32054C52.2067 6.26251 52.3295 6.20447 52.4524 6.20447C52.5752 6.14643 52.6366 6.14643 52.7594 6.14643C52.8209 6.14643 52.8823 6.14643 52.9437 6.14643C53.0051 6.14643 53.0665 6.14643 53.1279 6.14643C53.2508 6.14643 53.3122 6.14643 53.435 6.20447C53.5579 6.20447 53.6807 6.26251 53.7421 6.26251C53.8035 6.26251 53.9264 6.32054 53.9878 6.32054C54.1106 6.32054 54.172 6.37858 54.2335 6.37858L54.5405 6.49466L54.602 6.14643L54.7248 5.21783V4.98568L54.4791 4.92764C54.4177 4.92764 54.2949 4.8696 54.2335 4.8696C54.172 4.8696 54.1106 4.81156 53.9878 4.81156C53.9264 4.81156 53.8035 4.75353 53.6807 4.75353C53.5579 4.75353 53.4965 4.69549 53.3736 4.69549H53.3122V3.88296V3.59277H53.0051H52.1453H51.8382V3.88296V4.75353H51.7768C51.5925 4.81156 51.4083 4.8696 51.224 4.98568C51.0398 5.04372 50.9169 5.15979 50.7941 5.27587C50.6713 5.39194 50.5484 5.50802 50.4256 5.68213C50.3028 5.79821 50.2413 5.97232 50.1799 6.14643C50.1185 6.32054 50.0571 6.49466 49.9957 6.66877C49.9343 6.84288 49.9342 7.07503 49.9342 7.24915C49.9342 7.42326 49.9343 7.53934 49.9957 7.71345C50.0571 7.88756 50.0571 8.00364 50.1799 8.17775C50.2413 8.29382 50.3642 8.46794 50.4256 8.58401C50.5484 8.70009 50.6098 8.81616 50.7327 8.93224C50.8555 9.04831 50.9783 9.16439 51.1626 9.22243C51.2854 9.3385 51.4697 9.39654 51.5925 9.45458C51.7768 9.51262 51.961 9.62869 52.0839 9.68673C52.2681 9.74477 52.4524 9.8028 52.5752 9.86084C52.6366 9.86084 52.7594 9.91888 52.8209 9.97692C52.8823 10.035 53.0051 10.035 53.0665 10.093C53.1279 10.151 53.1894 10.2091 53.2508 10.2091C53.3122 10.2671 53.3736 10.3251 53.435 10.3832C53.4965 10.4412 53.4964 10.4993 53.5579 10.6153C53.5579 10.6734 53.6193 10.7894 53.6193 10.9055C53.6193 11.0216 53.6193 11.0796 53.6193 11.1957C53.6193 11.2537 53.5579 11.3698 53.4965 11.4279C53.435 11.4859 53.3736 11.5439 53.3122 11.602C53.2508 11.66 53.1894 11.718 53.0665 11.7761C53.0051 11.8341 52.8823 11.8341 52.8209 11.8922C52.7594 11.8922 52.6366 11.9502 52.5138 11.9502C52.4524 11.9502 52.3909 11.9502 52.2681 11.9502C52.2067 11.9502 52.0839 11.9502 52.0224 11.9502C51.8996 11.9502 51.7768 11.9502 51.7153 11.9502C51.5925 11.9502 51.4697 11.8922 51.4083 11.8922C51.2854 11.8922 51.1626 11.8341 51.0398 11.7761C50.9169 11.718 50.7941 11.718 50.6713 11.66C50.6098 11.66 50.5484 11.602 50.487 11.602C50.4256 11.602 50.3642 11.5439 50.3028 11.5439L49.9342 11.3698L49.8728 11.7761L49.75 12.8208V12.9949L49.9342 13.0529C50.1799 12.9949 50.3028 13.0529 50.487 13.111C50.6098 13.169 50.7941 13.227 50.9169 13.227C51.0398 13.2851 51.224 13.2851 51.4083 13.3431C51.5925 13.4011 51.7154 13.4011 51.8996 13.4011H52.0224V14.2717V14.5619H52.3295H53.1894H53.4965V14.2717V13.3431H53.5579C53.7421 13.2851 53.9264 13.227 54.1106 13.111C54.2949 13.0529 54.4177 12.9368 54.602 12.8208C54.7248 12.7047 54.8476 12.5886 54.9705 12.4145C55.0933 12.2984 55.1547 12.1243 55.2776 11.9502C55.339 11.7761 55.4004 11.602 55.4618 11.4279C55.5232 11.2537 55.5232 11.0796 55.5232 10.8475C55.5232 10.6734 55.5232 10.5573 55.4618 10.3832Z" fill="white"/>
<path d="M48.4102 21.2715C48.1139 20.8608 47.462 20.8021 47.0471 21.0955L37.4457 28.6652L25.0588 23.56C24.7625 23.4427 24.4069 23.5013 24.1698 23.6774L10.8939 33.0661C10.479 33.3595 10.3605 33.9463 10.6568 34.3571C10.8346 34.6505 11.1309 34.7678 11.4273 34.7678C11.6051 34.7678 11.7829 34.7092 11.9607 34.5918L24.8217 25.4965L37.2679 30.6016C37.5643 30.7189 37.9791 30.6603 38.2162 30.4842L48.2324 22.6212C48.6473 22.3278 48.7066 21.6823 48.4102 21.2715Z" fill="white"/>
<path fill-rule="evenodd" clip-rule="evenodd" d="M46.7788 21.1253L46.7826 21.1227C47.2596 20.7906 48.02 20.8441 48.3794 21.3344C48.7193 21.7981 48.6655 22.5366 48.1659 22.8879L38.244 30.5547L38.2421 30.5561C38.0949 30.6636 37.9028 30.7292 37.7112 30.7536C37.5193 30.778 37.3116 30.7631 37.1311 30.6927L37.129 30.6919L24.8887 25.75L12.2241 34.5657L12.2218 34.5673C12.0225 34.6967 11.8129 34.7678 11.5954 34.7678C11.2562 34.7678 10.8996 34.6343 10.6843 34.2896C10.3354 33.8068 10.4813 33.1325 10.9643 32.7963L24.1156 23.6416C24.3975 23.4366 24.8135 23.3689 25.1662 23.5063L25.1685 23.5072L37.3444 28.4466L46.7788 21.1253ZM37.3728 28.6445L25.1006 23.6661C24.807 23.5516 24.4547 23.6089 24.2198 23.7805L11.0669 32.9363C10.6559 33.2224 10.5384 33.7947 10.832 34.1952C11.0082 34.4813 11.3018 34.5958 11.5954 34.5958C11.7715 34.5958 11.9477 34.5386 12.1238 34.4241L24.8657 25.5545L37.1966 30.5329C37.4902 30.6474 37.9012 30.5901 38.1361 30.4185L48.0595 22.7505C48.4706 22.4644 48.5293 21.8349 48.2357 21.4344C47.9421 21.0338 47.2962 20.9766 46.8852 21.2627L37.3728 28.6445Z" fill="white"/>
<path d="M62.1336 53.672H57.7409V26.4712C57.7409 25.9425 57.3254 25.5312 56.7911 25.5312H48.0651C47.5309 25.5312 47.1153 25.9425 47.1153 26.4712V53.672H43.9098V35.8711C43.9098 35.3423 43.4943 34.9311 42.9601 34.9311H34.1747C33.6404 34.9311 33.2249 35.3423 33.2249 35.8711V53.672H30.0194V34.4611C30.0194 33.9324 29.6039 33.5211 29.0696 33.5211H20.3436C19.8093 33.5211 19.3938 33.9324 19.3938 34.4611V53.672H16.1883V39.9835C16.1883 39.4548 15.7728 39.0435 15.2386 39.0435H6.45317C5.91892 39.0435 5.5034 39.4548 5.5034 39.9835V53.672H1.05134C0.517088 53.672 0.101562 54.0833 0.101562 54.612C0.101562 55.1408 0.517088 55.552 1.05134 55.552H6.39381H15.1198H20.3436H29.0696H34.1747H42.9007H48.0057H56.7318H62.0742C62.6085 55.552 63.024 55.1408 63.024 54.612C63.0834 54.0833 62.6679 53.672 62.1336 53.672ZM14.2294 53.672H7.40294V40.9235H14.2294V53.672ZM28.1199 53.672H21.2934V35.4011H28.1199V53.672ZM41.9509 53.672H35.1244V36.8111H41.9509V53.672ZM55.8414 53.672H49.0149V27.4112H55.8414V53.672Z" fill="white"/>
<path fill-rule="evenodd" clip-rule="evenodd" d="M58.2997 53.3024H62.5286C63.1562 53.3024 63.6676 53.7924 63.6012 54.4371C63.5961 55.0633 63.1008 55.5522 62.469 55.5522H1.23375C0.598721 55.5522 0.101562 55.0582 0.101562 54.4273C0.101562 53.7964 0.598723 53.3024 1.23375 53.3024H5.5222V39.6909C5.5222 39.06 6.01936 38.566 6.65438 38.566H15.4704C16.1054 38.566 16.6025 39.06 16.6025 39.6909V53.3024H19.461V34.1278C19.461 33.4968 19.9581 33.0029 20.5932 33.0029H29.3496C29.9846 33.0029 30.4817 33.4968 30.4817 34.1278V53.3024H33.3402V35.5481C33.3402 34.9172 33.8373 34.4233 34.4724 34.4233H43.2883C43.9234 34.4233 44.4205 34.9172 44.4205 35.5481V53.3024H47.2789V26.079C47.2789 25.448 47.7761 24.9541 48.4111 24.9541H57.1675C57.8026 24.9541 58.2997 25.448 58.2997 26.079V53.3024ZM63.4221 54.4273C63.4221 54.9599 63.0051 55.3742 62.469 55.3742H1.23375C0.697639 55.3742 0.280667 54.9599 0.280667 54.4273C0.280667 53.8947 0.697639 53.4804 1.23375 53.4804H5.7013V39.6909C5.7013 39.1583 6.11827 38.744 6.65438 38.744H15.4704C16.0065 38.744 16.4234 39.1583 16.4234 39.6909V53.4804H19.6401V34.1278C19.6401 33.5951 20.057 33.1808 20.5932 33.1808H29.3496C29.8857 33.1808 30.3026 33.5951 30.3026 34.1278V53.4804H33.5193V35.5481C33.5193 35.0155 33.9363 34.6012 34.4724 34.6012H43.2883C43.8244 34.6012 44.2414 35.0155 44.2414 35.5481V53.4804H47.458V26.079C47.458 25.5463 47.875 25.132 48.4111 25.132H57.1675C57.7036 25.132 58.1206 25.5463 58.1206 26.079V53.4804H62.5286C63.0647 53.4804 63.4817 53.8947 63.4221 54.4273ZM7.78656 53.3024H14.2786V40.8158H7.78656V53.3024ZM21.7253 53.3024H28.2174V35.2526H21.7253V53.3024ZM35.6045 53.3024H42.0966V36.673H35.6045V53.3024ZM49.5433 53.3024H56.0354V27.2038H49.5433V53.3024ZM14.4577 53.4804V40.6378H7.60746V53.4804H14.4577ZM28.3965 53.4804V35.0747H21.5462V53.4804H28.3965ZM42.2757 53.4804V36.4951H35.4254V53.4804H42.2757ZM56.2145 53.4804V27.0259H49.3642V53.4804H56.2145Z" fill="white"/>
</svg>
