<svg width="65" height="54" viewBox="0 0 65 54" fill="none" xmlns="http://www.w3.org/2000/svg">
<path fill-rule="evenodd" clip-rule="evenodd" d="M0.787765 26.9068L23.5754 51.8415C24.2716 52.6033 25.4003 52.6033 26.0965 51.8415L29.274 48.3646C29.9702 47.6028 29.9702 46.3677 29.274 45.606L12.185 26.9068L29.274 8.20764C29.9702 7.44587 29.9702 6.21078 29.274 5.44901L26.0965 1.97209C25.4003 1.21031 24.2716 1.21031 23.5754 1.97209L0.787765 26.9068ZM4.2002 25.9315L10.5553 25.9315L28.0135 6.82833L24.8359 3.35141L4.2002 25.9315ZM10.5552 27.8821L4.2002 27.8821L24.8359 50.4622L28.0135 46.9853L10.5552 27.8821Z" fill="white"/>
<path fill-rule="evenodd" clip-rule="evenodd" d="M64.9661 26.9467L42.1785 51.8814C41.4823 52.6432 40.3536 52.6432 39.6574 51.8814L36.4799 48.4045C35.7837 47.6427 35.7837 46.4076 36.4799 45.6459L53.5689 26.9467L36.4799 8.24754C35.7837 7.48576 35.7837 6.25068 36.4799 5.48891L39.6574 2.01199C40.3536 1.25021 41.4823 1.25021 42.1785 2.01199L64.9661 26.9467ZM61.5537 25.9714L40.918 3.39131L37.7404 6.86822L55.1987 25.9714L61.5537 25.9714ZM55.1987 27.922L37.7404 47.0252L40.918 50.5021L61.5537 27.922L55.1987 27.922Z" fill="white"/>
</svg>
