<svg width="65" height="65" viewBox="0 0 65 65" fill="none" xmlns="http://www.w3.org/2000/svg">
<path d="M63.9789 39.1217L63.9885 39.1185L53.4672 16.1621L56.0187 14.8922L55.0639 12.9804L52.5764 14.2194L52.24 13.4856C51.9941 12.9495 51.3602 12.7141 50.824 12.9599C50.5915 13.0665 50.405 13.2531 50.2983 13.4856L49.9982 14.1414C48.1878 13.3006 46.2161 12.8643 44.22 12.863H35.2485V10.7269H37.3845V8.59081H35.5486L36.3165 5.51807C36.9061 3.15865 35.4714 0.767985 33.112 0.178296C30.7525 -0.41126 28.3618 1.02338 27.7721 3.3828C27.597 4.0837 27.597 4.81704 27.7721 5.51794L28.5401 8.59068H26.7041V10.7267H28.8402V12.8628H19.8739C17.8759 12.8644 15.9021 13.3018 14.0905 14.1445L13.7903 13.4887C13.5446 12.9525 12.9105 12.7172 12.3744 12.9629C12.1418 13.0696 11.9553 13.2561 11.8486 13.4887L11.5122 14.2224L9.02473 12.9782L8.06989 14.8921L10.6215 16.1673L0.100136 39.1185C0.0352523 39.258 0.00214285 39.41 0.00294388 39.5638C0.00761658 43.6909 3.3522 47.0354 7.47926 47.0401H18.1597C22.2868 47.0354 25.6314 43.6909 25.636 39.5638C25.6334 39.4104 25.5969 39.2594 25.5292 39.1217L14.9791 16.0788C16.5127 15.367 18.1832 14.9985 19.8739 14.999H28.8402V54.0742L25.1939 57.7204H21.3639C18.4161 57.7239 16.0271 60.1128 16.0236 63.0606C16.0236 63.6504 16.5018 64.1287 17.0917 64.1287H46.997C47.5868 64.1287 48.065 63.6504 48.065 63.0606C48.0615 60.1128 45.6726 57.7239 42.7248 57.7204H38.8948L35.2485 54.0742V14.999H44.22C45.9108 14.9985 47.5813 15.367 49.1149 16.0788L38.5498 39.1185C38.4849 39.258 38.4518 39.41 38.4526 39.5638C38.4573 43.6909 41.8018 47.0354 45.9289 47.0401H56.6094C60.7364 47.0354 64.081 43.6909 64.0857 39.5638C64.0832 39.4104 64.0467 39.2594 63.9789 39.1217ZM18.1597 44.904H7.47926C4.94239 44.9012 2.7565 43.1168 2.24584 40.6319H23.3931C22.8826 43.1168 20.6966 44.9012 18.1597 44.904ZM22.904 38.4958H2.735L12.5461 17.0913C12.7252 17.1394 12.9137 17.1394 13.0929 17.0913L22.904 38.4958ZM30.2575 3.05411C31.0892 2.06725 32.5635 1.94162 33.5504 2.77336C33.6517 2.8588 33.7457 2.95278 33.8312 3.05411C34.2632 3.60362 34.4158 4.32241 34.2445 5.00008L33.3463 8.59081H30.7424L29.8441 5.00008C29.6729 4.32241 29.8256 3.60362 30.2575 3.05411ZM30.9763 12.863V10.7269H33.1124V12.863H30.9763ZM33.1124 14.999V53.4483H30.9763V14.999H33.1124ZM42.7248 59.8565C44.0823 59.8581 45.292 60.7133 45.7463 61.9926H18.3424C18.7967 60.7133 20.0064 59.8581 21.3639 59.8565H42.7248ZM35.8743 57.7204H28.2143L30.3504 55.5844H33.7382L35.8743 57.7204ZM50.9936 17.0945C51.1699 17.1566 51.3634 17.1486 51.534 17.0721L61.3536 38.4958H41.1847L50.9936 17.0945ZM56.6094 44.904H45.9289C43.392 44.9012 41.2061 43.1168 40.6955 40.6319H61.8428C61.3323 43.1168 59.1462 44.9012 56.6094 44.904Z" fill="white"/>
</svg>
