<svg width="65" height="65" viewBox="0 0 65 65" fill="none" xmlns="http://www.w3.org/2000/svg">
<path d="M38.861 16.6661H38.3472C39.5163 15.3416 40.2285 13.5983 40.2285 11.6895V9.04119V7.81598V7.5403C40.2285 3.40784 36.8953 0.0458984 32.7981 0.0458984C28.7008 0.0458984 25.3676 3.40784 25.3676 7.54017V7.81586V9.04107V11.6895C25.3676 13.5981 26.0798 15.3415 27.2489 16.6661H26.7352C21.6423 16.6661 17.499 20.8449 17.499 25.9814V32.2718C17.499 32.967 18.0578 33.5306 18.7472 33.5306H46.849C47.5382 33.5306 48.0971 32.967 48.0971 32.2718V25.9814C48.0971 20.8449 43.9538 16.6661 38.861 16.6661ZM32.7981 2.56354C35.273 2.56354 37.3283 4.41087 37.6794 6.81018L35.4769 5.50516C34.9513 5.1936 34.2796 5.31092 33.8881 5.78198C32.8319 7.05326 31.2831 7.78225 29.6386 7.78225H27.8638V7.54017C27.8638 4.79607 30.0773 2.56354 32.7981 2.56354ZM27.8638 10.3H29.6386C31.6636 10.3 33.5886 9.53767 35.0613 8.1789L37.7323 9.76162V11.6896C37.7323 14.4337 35.5189 16.6663 32.7981 16.6663C30.0773 16.6663 27.8638 14.4336 27.8638 11.6896V10.3ZM45.6008 31.0129H19.9953V25.9814C19.9953 22.2332 23.0189 19.1838 26.7352 19.1838H31.5499V21.6976C31.5499 22.3929 32.1088 22.9565 32.7981 22.9565C33.4873 22.9565 34.0462 22.3929 34.0462 21.6976V19.1838H38.861C42.5773 19.1838 45.6008 22.2332 45.6008 25.9814V31.0129Z" fill="white"/>
<path d="M20.3688 50.0874H18.612C19.2811 49.152 19.675 48.0164 19.675 46.7922V45.6581C19.675 42.4725 17.0155 39.8809 13.7466 39.8809C10.4776 39.8809 7.81817 42.4725 7.81817 45.6581V46.7922C7.81817 48.0164 8.21206 49.152 8.88116 50.0874H7.12436C3.61331 50.0874 0.756836 52.8711 0.756836 56.2926V62.8873C0.756836 63.5728 1.32711 64.1284 2.03034 64.1284H25.4628C26.1661 64.1284 26.7363 63.5728 26.7363 62.8873V56.2926C26.7363 52.8711 23.8799 50.0874 20.3688 50.0874ZM10.3652 45.6581C10.3652 43.8411 11.882 42.3629 13.7466 42.3629C15.6111 42.3629 17.128 43.8411 17.128 45.6581V46.7922C17.128 48.6092 15.6111 50.0874 13.7466 50.0874C11.882 50.0874 10.3652 48.6092 10.3652 46.7922V45.6581ZM24.1893 61.6463H3.30385V56.2926C3.30385 54.2397 5.01773 52.5695 7.12436 52.5695H12.4731V55.0688C12.4731 55.7542 13.0434 56.3098 13.7466 56.3098C14.4498 56.3098 15.0201 55.7542 15.0201 55.0688V52.5695H20.3688C22.4754 52.5695 24.1893 54.2397 24.1893 56.2926V61.6463Z" fill="white"/>
<path d="M58.6136 50.0874H56.8959C57.5501 49.152 57.9353 48.0164 57.9353 46.7922V45.6581C57.9353 42.4725 55.3349 39.8809 52.1386 39.8809C48.9423 39.8809 46.3419 42.4725 46.3419 45.6581V46.7922C46.3419 48.0164 46.7271 49.152 47.3813 50.0874H45.6635C42.2305 50.0874 39.4375 52.8711 39.4375 56.2926V62.8873C39.4375 63.5728 39.9951 64.1284 40.6827 64.1284H63.5945C64.2821 64.1284 64.8397 63.5728 64.8397 62.8873V56.2926C64.8397 52.8711 62.0467 50.0874 58.6136 50.0874ZM48.8323 45.6581C48.8323 43.8411 50.3155 42.3629 52.1386 42.3629C53.9617 42.3629 55.4449 43.8411 55.4449 45.6581V46.7922C55.4449 48.6092 53.9617 50.0874 52.1386 50.0874C50.3155 50.0874 48.8323 48.6092 48.8323 46.7922V45.6581ZM62.3493 61.6463H41.9279V56.2926C41.9279 54.2397 43.6037 52.5695 45.6635 52.5695H50.8934V55.0688C50.8934 55.7542 51.451 56.3098 52.1386 56.3098C52.8262 56.3098 53.3838 55.7542 53.3838 55.0688V52.5695H58.6136C60.6735 52.5695 62.3493 54.2397 62.3493 56.2926V61.6463Z" fill="white"/>
<path d="M40.8054 48.741L34.3232 42.271V37.0753C34.3232 36.3929 33.7689 35.8398 33.0854 35.8398C32.402 35.8398 31.8477 36.3929 31.8477 37.0753V42.271L25.3654 48.7411C24.8821 49.2236 24.8821 50.0058 25.3654 50.4884C25.8489 50.9708 26.6324 50.9708 27.116 50.4884L33.0854 44.5299L39.0549 50.4883C39.2966 50.7296 39.6134 50.8501 39.9301 50.8501C40.2469 50.8501 40.5637 50.7296 40.8054 50.4883C41.2888 50.0058 41.2888 49.2236 40.8054 48.741Z" fill="white"/>
<path d="M33.9035 25.7866C33.6888 25.5718 33.3909 25.4482 33.0873 25.4482C32.7836 25.4482 32.4857 25.5718 32.2709 25.7866C32.0562 26.0013 31.9326 26.2992 31.9326 26.6029C31.9326 26.9066 32.056 27.2045 32.2709 27.4192C32.4858 27.634 32.7836 27.7575 33.0873 27.7575C33.3909 27.7575 33.6888 27.634 33.9035 27.4192C34.1182 27.2045 34.2419 26.9066 34.2419 26.6029C34.2419 26.2992 34.1184 26.0013 33.9035 25.7866Z" fill="white"/>
</svg>
