<svg width="65" height="65" viewBox="0 0 65 65" fill="none" xmlns="http://www.w3.org/2000/svg">
<path d="M63.4444 0.0458984H1.49773C0.907905 0.0458984 0.429688 0.523603 0.429688 1.11394V7.52222C0.429688 8.11256 0.907905 8.59027 1.49773 8.59027H3.63383V53.4482H1.49773C0.907905 53.4482 0.429688 53.9259 0.429688 54.5162V58.7884C0.429688 59.3788 0.907905 59.8565 1.49773 59.8565H27.1308V60.9245C27.1308 62.6914 28.5681 64.1287 30.335 64.1287H34.6072C36.374 64.1287 37.8113 62.6914 37.8113 60.9245V59.8565H63.4444C64.0342 59.8565 64.5124 59.3788 64.5124 58.7884V54.5162C64.5124 53.9259 64.0342 53.4482 63.4444 53.4482H61.3083V8.59027H63.4444C64.0342 8.59027 64.5124 8.11256 64.5124 7.52222V1.11394C64.5124 0.523603 64.0342 0.0458984 63.4444 0.0458984ZM35.6752 60.9245C35.6752 61.5138 35.1959 61.9926 34.6072 61.9926H30.335C29.7462 61.9926 29.2669 61.5138 29.2669 60.9245V59.8565H35.6752V60.9245ZM62.3764 57.7204H2.56578V55.5843H4.70187H60.2403H62.3764V57.7204ZM59.1722 53.4482H5.76992V8.59027H59.1722V53.4482ZM62.3764 6.45417H60.2403H4.70187H2.56578V2.18199H62.3764V6.45417Z" fill="white"/>
<path d="M50.6263 39.6335C50.6263 40.0524 50.7118 40.4503 50.8569 40.8176L46.862 44.3464C46.4003 44.0843 45.8755 43.9222 45.3089 43.9222C44.6558 43.9222 44.049 44.1224 43.5428 44.4631L39.8325 41.6579C39.9265 41.355 39.9915 41.0394 39.9915 40.7057C39.9915 38.932 38.5603 37.4892 36.801 37.4892C35.0417 37.4892 33.6105 38.932 33.6105 40.7057C33.6105 41.1246 33.696 41.5224 33.8411 41.8897L29.8461 45.4186C29.3845 45.1564 28.8597 44.9943 28.2931 44.9943C26.9085 44.9943 25.739 45.8934 25.2986 47.1387H16.5947V49.283H25.2987C25.7391 50.5284 26.9085 51.4274 28.2931 51.4274C30.0524 51.4274 31.4836 49.9845 31.4836 48.2109C31.4836 47.792 31.3982 47.394 31.2531 47.0267L35.248 43.4979C35.7096 43.7601 36.2344 43.9222 36.801 43.9222C37.4541 43.9222 38.0609 43.722 38.5671 43.3812L42.2774 46.1865C42.1834 46.4893 42.1184 46.805 42.1184 47.1387C42.1184 48.9124 43.5496 50.3552 45.3089 50.3552C47.0682 50.3552 48.4994 48.9124 48.4994 47.1387C48.4994 46.7198 48.414 46.3219 48.2689 45.9546L52.2638 42.4258C52.7254 42.6879 53.2502 42.85 53.8168 42.85C55.5761 42.85 57.0073 41.4072 57.0073 39.6335C57.0073 37.8598 55.5761 36.417 53.8168 36.417C52.0575 36.417 50.6263 37.8598 50.6263 39.6335ZM28.2931 49.283C27.7068 49.283 27.2296 48.8024 27.2296 48.2109C27.2296 47.6193 27.7068 47.1387 28.2931 47.1387C28.8794 47.1387 29.3566 47.6193 29.3566 48.2109C29.3566 48.8024 28.8794 49.283 28.2931 49.283ZM36.801 41.7778C36.2147 41.7778 35.7375 41.2973 35.7375 40.7057C35.7375 40.1141 36.2147 39.6335 36.801 39.6335C37.3873 39.6335 37.8645 40.1141 37.8645 40.7057C37.8645 41.2973 37.3873 41.7778 36.801 41.7778ZM45.3089 48.2109C44.7226 48.2109 44.2454 47.7303 44.2454 47.1387C44.2454 46.5471 44.7226 46.0665 45.3089 46.0665C45.8952 46.0665 46.3724 46.5471 46.3724 47.1387C46.3724 47.7303 45.8952 48.2109 45.3089 48.2109ZM54.8803 39.6335C54.8803 40.2251 54.4031 40.7057 53.8168 40.7057C53.2305 40.7057 52.7533 40.2251 52.7533 39.6335C52.7533 39.0419 53.2305 38.5613 53.8168 38.5613C54.4031 38.5613 54.8803 39.0419 54.8803 39.6335Z" fill="white"/>
<path d="M19.4808 30.067C23.6192 30.067 26.986 26.6997 26.986 22.5618C26.986 18.4239 23.6192 15.0566 19.4808 15.0566C15.3423 15.0566 11.9756 18.4239 11.9756 22.5618C11.9756 26.6997 15.3423 30.067 19.4808 30.067ZM20.5529 17.3093C21.2361 17.4486 21.8701 17.7214 22.4324 18.0941L20.5529 19.9735V17.3093ZM18.4086 17.3093V22.5618C18.4086 22.9953 18.6698 23.3869 19.0703 23.5523C19.2033 23.6078 19.3426 23.634 19.4808 23.634C19.7598 23.634 20.0336 23.5251 20.2388 23.3199L23.9485 19.6102C24.5103 20.4578 24.8416 21.4711 24.8416 22.5618C24.8416 25.5176 22.4366 27.9227 19.4808 27.9227C16.525 27.9227 14.1199 25.5176 14.1199 22.5618C14.1199 19.9731 15.9648 17.8075 18.4086 17.3093Z" fill="white"/>
<path d="M19.48 34.1075C25.8468 34.1075 31.0265 28.9278 31.0265 22.5611C31.0265 16.1944 25.8468 11.0146 19.48 11.0146V13.114C24.6889 13.114 28.9271 17.3517 28.9271 22.5611C28.9271 27.7705 24.6889 32.0082 19.48 32.0082C14.2711 32.0082 10.0329 27.7705 10.0329 22.5611H7.93359C7.93359 28.9278 13.1133 34.1075 19.48 34.1075Z" fill="white"/>
<path d="M39.715 32.3764H44.0187H48.3224H52.626H55.8538V30.1886H53.702V12.6866C53.702 12.082 53.2202 11.5928 52.626 11.5928H48.3224C47.7282 11.5928 47.2465 12.082 47.2465 12.6866V20.3438H45.0946V18.156C45.0946 17.5514 44.6129 17.0621 44.0187 17.0621H39.715C39.1208 17.0621 38.6391 17.5514 38.6391 18.156V23.6254H35.4113C34.8172 23.6254 34.3354 24.1146 34.3354 24.7193V30.1886H32.1836V32.3764H35.4113H39.715ZM49.3983 13.7805H51.5501V30.1886H49.3983V21.4376V13.7805ZM47.2465 22.5315V30.1886H45.0946V22.5315H47.2465ZM40.7909 19.2499H42.9428V21.4376V30.1886H40.7909V24.7193V19.2499ZM36.4873 25.8131H38.6391V30.1886H36.4873V25.8131Z" fill="white"/>
<path d="M11.9766 47.3867H14.2859V49.1187H11.9766V47.3867Z" fill="white"/>
<path d="M7.93359 47.3867H9.66556V49.1187H7.93359V47.3867Z" fill="white"/>
</svg>
