<svg width="167" height="207" viewBox="0 0 167 207" fill="none" xmlns="http://www.w3.org/2000/svg">
<path d="M62.788 127.356C62.788 118.458 64.776 111.074 68.752 105.204C72.728 99.1456 78.408 92.6136 85.792 85.6083C90.5253 81.0643 93.9333 77.3723 96.016 74.5323C98.288 71.6923 99.424 68.6629 99.424 65.4443C99.424 61.2789 97.6253 58.0603 94.028 55.7883C90.4307 53.3269 85.8867 52.0962 80.396 52.0962C74.3373 52.0962 68.6573 53.8949 63.356 57.4923C58.0547 60.9003 53.8893 65.5389 50.86 71.4083L0.308 46.1323C7.88133 31.7429 19.052 20.4776 33.82 12.3363C48.7773 4.19492 67.1427 0.124256 88.916 0.124256C112.015 0.124256 130.759 4.85759 145.148 14.3243C159.537 23.7909 166.732 37.1389 166.732 54.3683C166.732 62.3203 165.312 69.3256 162.472 75.3843C159.821 81.2536 156.603 86.2709 152.816 90.4363C149.029 94.4123 144.201 98.8616 138.332 103.784C132.273 109.086 127.919 113.346 125.268 116.564C122.617 119.783 121.292 123.38 121.292 127.356H62.788ZM92.04 206.308C81.0587 206.308 72.0653 202.995 65.06 196.368C58.0547 189.742 54.552 181.695 54.552 172.228C54.552 162.572 58.0547 154.62 65.06 148.372C72.0653 141.935 81.0587 138.716 92.04 138.716C103.021 138.716 112.015 141.935 119.02 148.372C126.025 154.62 129.528 162.572 129.528 172.228C129.528 181.695 126.025 189.742 119.02 196.368C112.015 202.995 103.021 206.308 92.04 206.308Z" fill="#ED2939"/>
</svg>
