<svg width="109" height="135" viewBox="0 0 109 135" fill="none" xmlns="http://www.w3.org/2000/svg">
<path d="M40.7159 83.3711C40.7159 77.6058 42.0039 72.8218 44.5799 69.0191C47.1559 65.0938 50.8359 60.8618 55.6199 56.3231C58.6866 53.3791 60.8946 50.9871 62.2439 49.1471C63.7159 47.3071 64.4519 45.3444 64.4519 43.2591C64.4519 40.5604 63.2866 38.4751 60.9559 37.0031C58.6253 35.4084 55.6813 34.6111 52.1239 34.6111C48.1986 34.6111 44.5186 35.7764 41.0839 38.1071C37.6493 40.3151 34.9506 43.3204 32.9879 47.1231L0.23593 30.7471C5.1426 21.4244 12.3799 14.1258 21.9479 8.8511C31.6386 3.57643 43.5373 0.939102 57.6439 0.939102C72.6093 0.939102 84.7533 4.00577 94.0759 10.1391C103.399 16.2724 108.06 24.9204 108.06 36.0831C108.06 41.2351 107.14 45.7738 105.3 49.6991C103.583 53.5018 101.497 56.7524 99.0439 59.4511C96.5906 62.0271 93.4626 64.9098 89.6599 68.0991C85.7346 71.5338 82.9133 74.2938 81.1959 76.3791C79.4786 78.4644 78.6199 80.7951 78.6199 83.3711H40.7159ZM59.6679 134.523C52.5533 134.523 46.7266 132.376 42.1879 128.083C37.6493 123.79 35.3799 118.576 35.3799 112.443C35.3799 106.187 37.6493 101.035 42.1879 96.9871C46.7266 92.8164 52.5533 90.7311 59.6679 90.7311C66.7826 90.7311 72.6093 92.8164 77.1479 96.9871C81.6866 101.035 83.9559 106.187 83.9559 112.443C83.9559 118.576 81.6866 123.79 77.1479 128.083C72.6093 132.376 66.7826 134.523 59.6679 134.523Z" fill="#ED2939"/>
</svg>
