<svg width="65" height="65" viewBox="0 0 65 65" fill="none" xmlns="http://www.w3.org/2000/svg">
<path d="M63.976 39.0758L63.9856 39.0726L53.4642 16.1162L56.0158 14.8463L55.061 12.9345L52.5735 14.1735L52.2371 13.4397C51.9911 12.9036 51.3573 12.6682 50.8211 12.914C50.5885 13.0206 50.402 13.2072 50.2954 13.4397L49.9952 14.0955C48.1849 13.2547 46.2132 12.8184 44.2171 12.8171H35.2455V10.681H37.3816V8.54491H35.5456L36.3136 5.47217C36.9031 3.11275 35.4685 0.722086 33.109 0.132397C30.7496 -0.457158 28.3589 0.97748 27.7692 3.3369C27.594 4.0378 27.594 4.77114 27.7692 5.47204L28.5371 8.54478H26.7012V10.6808H28.8372V12.8169H19.871C17.873 12.8185 15.8992 13.2559 14.0875 14.0986L13.7874 13.4428C13.5416 12.9066 12.9076 12.6713 12.3715 12.917C12.1389 13.0237 11.9524 13.2102 11.8457 13.4428L11.5093 14.1765L9.0218 12.9323L8.06696 14.8462L10.6185 16.1214L0.0972064 39.0726C0.0323226 39.2121 -0.000786839 39.3641 1.41951e-05 39.5179C0.0046869 43.645 3.34927 46.9895 7.47633 46.9942H18.1568C22.2839 46.9895 25.6284 43.645 25.6331 39.5179C25.6304 39.3645 25.594 39.2135 25.5263 39.0758L14.9762 16.0329C16.5097 15.3211 18.1803 14.9526 19.871 14.9531H28.8372V54.0283L25.1909 57.6745H21.3609C18.4131 57.678 16.0242 60.0669 16.0207 63.0147C16.0207 63.6045 16.4989 64.0828 17.0887 64.0828H46.994C47.5839 64.0828 48.0621 63.6045 48.0621 63.0147C48.0586 60.0669 45.6697 57.678 42.7218 57.6745H38.8918L35.2455 54.0283V14.9531H44.2171C45.9078 14.9526 47.5784 15.3211 49.112 16.0329L38.5469 39.0726C38.482 39.2121 38.4489 39.3641 38.4497 39.5179C38.4543 43.645 41.7989 46.9895 45.926 46.9942H56.6064C60.7335 46.9895 64.0781 43.645 64.0828 39.5179C64.0802 39.3645 64.0438 39.2135 63.976 39.0758ZM18.1568 44.8581H7.47633C4.93946 44.8553 2.75357 43.0709 2.24291 40.586H23.3902C22.8797 43.0709 20.6937 44.8553 18.1568 44.8581ZM22.901 38.4499H2.73208L12.5431 17.0454C12.7223 17.0935 12.9108 17.0935 13.09 17.0454L22.901 38.4499ZM30.2545 3.00822C31.0863 2.02135 32.5606 1.89572 33.5475 2.72746C33.6488 2.8129 33.7428 2.90689 33.8282 3.00822C34.2603 3.55772 34.4128 4.27651 34.2416 4.95418L33.3433 8.54491H30.7394L29.8412 4.95418C29.6699 4.27651 29.8227 3.55772 30.2545 3.00822ZM30.9733 12.8171V10.681H33.1094V12.8171H30.9733ZM33.1094 14.9531V53.4024H30.9733V14.9531H33.1094ZM42.7218 59.8106C44.0793 59.8122 45.289 60.6674 45.7433 61.9467H18.3394C18.7937 60.6674 20.0034 59.8122 21.3609 59.8106H42.7218ZM35.8714 57.6745H28.2114L30.3475 55.5385H33.7353L35.8714 57.6745ZM50.9907 17.0486C51.167 17.1107 51.3605 17.1027 51.5311 17.0262L61.3507 38.4499H41.1817L50.9907 17.0486ZM56.6064 44.8581H45.926C43.3891 44.8553 41.2032 43.0709 40.6926 40.586H61.8399C61.3293 43.0709 59.1433 44.8553 56.6064 44.8581Z" fill="#E33237"/>
</svg>
