<svg width="65" height="65" viewBox="0 0 65 65" fill="none" xmlns="http://www.w3.org/2000/svg">
<path d="M38.1044 16.6202H37.5906C38.7598 15.2957 39.4719 13.5524 39.4719 11.6436V8.9953V7.77008V7.4944C39.4719 3.36194 36.1387 0 32.0415 0C27.9442 0 24.611 3.36194 24.611 7.49428V7.76996V8.99517V11.6436C24.611 13.5522 25.3232 15.2956 26.4923 16.6202H25.9786C20.8857 16.6202 16.7424 20.799 16.7424 25.9355V32.2259C16.7424 32.9211 17.3012 33.4847 17.9906 33.4847H46.0924C46.7816 33.4847 47.3405 32.9211 47.3405 32.2259V25.9355C47.3405 20.799 43.1972 16.6202 38.1044 16.6202ZM32.0415 2.51765C34.5164 2.51765 36.5717 4.36497 36.9228 6.76428L34.7203 5.45926C34.1947 5.1477 33.523 5.26503 33.1315 5.73608C32.0753 7.00736 30.5265 7.73635 28.882 7.73635H27.1072V7.49428C27.1072 4.75017 29.3207 2.51765 32.0415 2.51765ZM27.1072 10.2541H28.882C30.907 10.2541 32.832 9.49178 34.3047 8.133L36.9757 9.71572V11.6437C36.9757 14.3878 34.7623 16.6204 32.0415 16.6204C29.3207 16.6204 27.1072 14.3877 27.1072 11.6437V10.2541ZM44.8442 30.967H19.2387V25.9355C19.2387 22.1873 22.2623 19.1379 25.9786 19.1379H30.7933V21.6518C30.7933 22.347 31.3523 22.9106 32.0415 22.9106C32.7307 22.9106 33.2896 22.347 33.2896 21.6518V19.1379H38.1044C41.8207 19.1379 44.8442 22.1873 44.8442 25.9355V30.967Z" fill="#E33237"/>
<path d="M19.612 50.0419H17.8552C18.5243 49.1065 18.9182 47.9708 18.9182 46.7467V45.6126C18.9182 42.427 16.2587 39.8353 12.9897 39.8353C9.72079 39.8353 7.06133 42.427 7.06133 45.6126V46.7467C7.06133 47.9708 7.45522 49.1065 8.12432 50.0419H6.36752C2.85647 50.0419 0 52.8255 0 56.2471V62.8418C0 63.5272 0.570275 64.0829 1.2735 64.0829H24.706C25.4092 64.0829 25.9795 63.5272 25.9795 62.8418V56.2471C25.9795 52.8255 23.123 50.0419 19.612 50.0419ZM9.60834 45.6126C9.60834 43.7956 11.1252 42.3174 12.9897 42.3174C14.8543 42.3174 16.3712 43.7956 16.3712 45.6126V46.7467C16.3712 48.5637 14.8543 50.0419 12.9897 50.0419C11.1252 50.0419 9.60834 48.5637 9.60834 46.7467V45.6126ZM23.4325 61.6008H2.54701V56.2471C2.54701 54.1941 4.26089 52.5239 6.36752 52.5239H11.7162V55.0233C11.7162 55.7087 12.2865 56.2643 12.9897 56.2643C13.693 56.2643 14.2633 55.7087 14.2633 55.0233V52.5239H19.612C21.7186 52.5239 23.4325 54.1941 23.4325 56.2471V61.6008Z" fill="#E33237"/>
<path d="M57.8568 50.0419H56.1391C56.7933 49.1065 57.1784 47.9708 57.1784 46.7467V45.6126C57.1784 42.427 54.5781 39.8353 51.3818 39.8353C48.1854 39.8353 45.5851 42.427 45.5851 45.6126V46.7467C45.5851 47.9708 45.9702 49.1065 46.6244 50.0419H44.9067C41.4737 50.0419 38.6807 52.8255 38.6807 56.2471V62.8418C38.6807 63.5272 39.2383 64.0829 39.9259 64.0829H62.8376C63.5252 64.0829 64.0828 63.5272 64.0828 62.8418V56.2471C64.0828 52.8255 61.2898 50.0419 57.8568 50.0419ZM48.0755 45.6126C48.0755 43.7956 49.5586 42.3174 51.3818 42.3174C53.2049 42.3174 54.688 43.7956 54.688 45.6126V46.7467C54.688 48.5637 53.2049 50.0419 51.3818 50.0419C49.5586 50.0419 48.0755 48.5637 48.0755 46.7467V45.6126ZM61.5924 61.6008H41.1711V56.2471C41.1711 54.1941 42.8469 52.5239 44.9067 52.5239H50.1365V55.0233C50.1365 55.7087 50.6941 56.2643 51.3818 56.2643C52.0694 56.2643 52.627 55.7087 52.627 55.0233V52.5239H57.8568C59.9166 52.5239 61.5924 54.1941 61.5924 56.2471V61.6008Z" fill="#E33237"/>
<path d="M40.0501 48.6951L33.5678 42.2251V37.0294C33.5678 36.347 33.0135 35.7939 32.3301 35.7939C31.6466 35.7939 31.0923 36.347 31.0923 37.0294V42.2251L24.6101 48.6952C24.1267 49.1777 24.1267 49.9599 24.6101 50.4425C25.0935 50.9249 25.877 50.9249 26.3606 50.4425L32.3301 44.484L38.2995 50.4424C38.5413 50.6837 38.858 50.8042 39.1747 50.8042C39.4915 50.8042 39.8083 50.6837 40.0501 50.4424C40.5334 49.9599 40.5334 49.1777 40.0501 48.6951Z" fill="#E33237"/>
<path d="M33.1462 25.7405C32.9315 25.5258 32.6336 25.4022 32.3299 25.4022C32.0263 25.4022 31.7284 25.5258 31.5136 25.7405C31.2988 25.9553 31.1753 26.2532 31.1753 26.5569C31.1753 26.8605 31.2987 27.1584 31.5136 27.3732C31.7285 27.588 32.0263 27.7115 32.3299 27.7115C32.6336 27.7115 32.9315 27.588 33.1462 27.3732C33.3609 27.1584 33.4846 26.8605 33.4846 26.5569C33.4846 26.2532 33.361 25.9553 33.1462 25.7405Z" fill="#E33237"/>
</svg>
