<svg width="65" height="49" viewBox="0 0 65 49" fill="none" xmlns="http://www.w3.org/2000/svg">
<path fill-rule="evenodd" clip-rule="evenodd" d="M-7.72828e-05 24.1307L22.7876 46.9183C23.4837 47.6145 24.6125 47.6145 25.3086 46.9183L28.4862 43.7408C29.1824 43.0446 29.1824 41.9159 28.4862 41.2197L11.3972 24.1307L28.4862 7.04168C29.1823 6.3455 29.1823 5.21677 28.4862 4.52059L25.3086 1.34307C24.6125 0.646885 23.4837 0.646885 22.7875 1.34307L-7.72828e-05 24.1307ZM3.41236 23.2394L9.76741 23.2394L27.2256 5.78114L24.0481 2.60361L3.41236 23.2394ZM9.76741 25.022L3.41236 25.022L24.0481 45.6578L27.2256 42.4803L9.76741 25.022Z" fill="#E33237"/>
<path fill-rule="evenodd" clip-rule="evenodd" d="M64.1768 24.1668L41.3892 46.9544C40.693 47.6506 39.5643 47.6506 38.8681 46.9544L35.6906 43.7769C34.9944 43.0807 34.9944 41.952 35.6906 41.2558L52.7796 24.1668L35.6906 7.07778C34.9944 6.3816 34.9944 5.25287 35.6906 4.55669L38.8681 1.37916C39.5643 0.682981 40.693 0.682981 41.3892 1.37916L64.1768 24.1668ZM60.7644 23.2754L40.1287 2.63971L36.9511 5.81723L54.4093 23.2754L60.7644 23.2754ZM54.4093 25.0581L36.9511 42.5163L40.1287 45.6939L60.7644 25.0581L54.4093 25.0581Z" fill="#E33237"/>
</svg>
