<svg width="65" height="65" viewBox="0 0 65 65" fill="none" xmlns="http://www.w3.org/2000/svg">
<path d="M63.0147 0H1.06805C0.478218 0 0 0.477705 0 1.06805V7.47632C0 8.06666 0.478218 8.54437 1.06805 8.54437H3.20414V53.4023H1.06805C0.478218 53.4023 0 53.88 0 54.4703V58.7425C0 59.3329 0.478218 59.8106 1.06805 59.8106H26.7011V60.8786C26.7011 62.6455 28.1384 64.0828 29.9053 64.0828H34.1775C35.9443 64.0828 37.3816 62.6455 37.3816 60.8786V59.8106H63.0147C63.6045 59.8106 64.0828 59.3329 64.0828 58.7425V54.4703C64.0828 53.88 63.6045 53.4023 63.0147 53.4023H60.8786V8.54437H63.0147C63.6045 8.54437 64.0828 8.06666 64.0828 7.47632V1.06805C64.0828 0.477705 63.6045 0 63.0147 0ZM35.2455 60.8786C35.2455 61.4679 34.7663 61.9467 34.1775 61.9467H29.9053C29.3165 61.9467 28.8372 61.4679 28.8372 60.8786V59.8106H35.2455V60.8786ZM61.9467 57.6745H2.13609V55.5384H4.27218H59.8106H61.9467V57.6745ZM58.7425 53.4023H5.34023V8.54437H58.7425V53.4023ZM61.9467 6.40828H59.8106H4.27218H2.13609V2.13609H61.9467V6.40828Z" fill="#E33237"/>
<path d="M50.1964 39.5878C50.1964 40.0067 50.2818 40.4046 50.427 40.7719L46.432 44.3008C45.9704 44.0386 45.4456 43.8765 44.879 43.8765C44.2259 43.8765 43.6191 44.0767 43.1129 44.4175L39.4026 41.6122C39.4966 41.3094 39.5615 40.9937 39.5615 40.66C39.5615 38.8863 38.1304 37.4435 36.3711 37.4435C34.6117 37.4435 33.1806 38.8863 33.1806 40.66C33.1806 41.0789 33.266 41.4768 33.4112 41.8441L29.4162 45.3729C28.9546 45.1108 28.4298 44.9487 27.8632 44.9487C26.4786 44.9487 25.3091 45.8477 24.8687 47.093H16.1648V49.2374H24.8687C25.3091 50.4827 26.4786 51.3817 27.8632 51.3817C29.6225 51.3817 31.0536 49.9389 31.0536 48.1652C31.0536 47.7463 30.9683 47.3484 30.8231 46.9811L34.818 43.4523C35.2797 43.7144 35.8045 43.8765 36.3711 43.8765C37.0241 43.8765 37.631 43.6763 38.1371 43.3356L41.8475 46.1408C41.7535 46.4437 41.6885 46.7594 41.6885 47.093C41.6885 48.8667 43.1196 50.3095 44.879 50.3095C46.6383 50.3095 48.0694 48.8667 48.0694 47.093C48.0694 46.6741 47.9841 46.2762 47.8389 45.9089L51.8338 42.3801C52.2955 42.6423 52.8203 42.8044 53.3869 42.8044C55.1462 42.8044 56.5773 41.3615 56.5773 39.5878C56.5773 37.8142 55.1462 36.3713 53.3869 36.3713C51.6275 36.3713 50.1964 37.8142 50.1964 39.5878ZM27.8632 49.2374C27.2769 49.2374 26.7997 48.7568 26.7997 48.1652C26.7997 47.5736 27.2769 47.093 27.8632 47.093C28.4494 47.093 28.9267 47.5736 28.9267 48.1652C28.9267 48.7568 28.4494 49.2374 27.8632 49.2374ZM36.3711 41.7322C35.7848 41.7322 35.3076 41.2516 35.3076 40.66C35.3076 40.0684 35.7848 39.5878 36.3711 39.5878C36.9573 39.5878 37.4346 40.0684 37.4346 40.66C37.4346 41.2516 36.9573 41.7322 36.3711 41.7322ZM44.879 48.1652C44.2927 48.1652 43.8155 47.6846 43.8155 47.093C43.8155 46.5015 44.2927 46.0209 44.879 46.0209C45.4652 46.0209 45.9425 46.5015 45.9425 47.093C45.9425 47.6846 45.4652 48.1652 44.879 48.1652ZM54.4504 39.5878C54.4504 40.1794 53.9731 40.66 53.3869 40.66C52.8006 40.66 52.3234 40.1794 52.3234 39.5878C52.3234 38.9963 52.8006 38.5157 53.3869 38.5157C53.9731 38.5157 54.4504 38.9963 54.4504 39.5878Z" fill="#E33237"/>
<path d="M19.0513 30.0208C23.1898 30.0208 26.5565 26.6535 26.5565 22.5156C26.5565 18.3777 23.1898 15.0104 19.0513 15.0104C14.9129 15.0104 11.5461 18.3777 11.5461 22.5156C11.5461 26.6535 14.9129 30.0208 19.0513 30.0208ZM20.1235 17.2631C20.8066 17.4023 21.4407 17.6752 22.0029 18.0478L20.1235 19.9273V17.2631ZM17.9792 17.2631V22.5156C17.9792 22.949 18.2404 23.3406 18.6409 23.5061C18.7739 23.5616 18.9131 23.5877 19.0513 23.5877C19.3304 23.5877 19.6042 23.4788 19.8094 23.2736L23.519 19.564C24.0809 20.4115 24.4122 21.4248 24.4122 22.5156C24.4122 25.4714 22.0071 27.8764 19.0513 27.8764C16.0955 27.8764 13.6905 25.4714 13.6905 22.5156C13.6905 19.9269 15.5354 17.7613 17.9792 17.2631Z" fill="#E33237"/>
<path d="M19.0513 34.062C25.4181 34.062 30.5978 28.8823 30.5978 22.5156C30.5978 16.1488 25.4181 10.9691 19.0513 10.9691V13.0685C24.2602 13.0685 28.4984 17.3061 28.4984 22.5156C28.4984 27.725 24.2602 31.9626 19.0513 31.9626C13.8424 31.9626 9.60424 27.725 9.60424 22.5156H7.50488C7.50488 28.8823 12.6846 34.062 19.0513 34.062Z" fill="#E33237"/>
<path d="M39.2841 32.33H43.5878H47.8915H52.1951H55.4229V30.1422H53.2711V12.6403C53.2711 12.0356 52.7893 11.5464 52.1951 11.5464H47.8915C47.2973 11.5464 46.8155 12.0356 46.8155 12.6403V20.2974H44.6637V18.1096C44.6637 17.505 44.182 17.0158 43.5878 17.0158H39.2841C38.6899 17.0158 38.2082 17.505 38.2082 18.1096V23.579H34.9804C34.3863 23.579 33.9045 24.0683 33.9045 24.6729V30.1422H31.7527V32.33H34.9804H39.2841ZM48.9674 13.7341H51.1192V30.1422H48.9674V21.3912V13.7341ZM46.8155 22.4851V30.1422H44.6637V22.4851H46.8155ZM40.36 19.2035H42.5119V21.3912V30.1422H40.36V24.6729V19.2035ZM36.0564 25.7667H38.2082V30.1422H36.0564V25.7667Z" fill="#E33237"/>
<path d="M11.5464 47.3405H13.8557V49.0724H11.5464V47.3405Z" fill="#E33237"/>
<path d="M7.50513 47.3405H9.23709V49.0724H7.50513V47.3405Z" fill="#E33237"/>
</svg>
