<svg width="64" height="56" viewBox="0 0 64 56" fill="none" xmlns="http://www.w3.org/2000/svg">
<path d="M52.5068 0.0825195C47.6858 0.0825195 43.8767 3.95117 43.8767 8.77211C43.8767 13.593 47.7454 17.4022 52.5068 17.4022C57.2682 17.4022 61.1964 13.5335 61.1964 8.71259C61.1964 3.89165 57.3277 0.0825195 52.5068 0.0825195ZM52.5068 15.4976C48.7572 15.4976 45.7218 12.4622 45.7218 8.71259C45.7218 4.96297 48.8167 1.98709 52.5068 1.98709C56.2564 1.98709 59.2918 5.02249 59.2918 8.77211C59.2918 12.5217 56.2564 15.4976 52.5068 15.4976Z" fill="#E33237"/>
<path d="M55.3617 10.3369C55.3003 10.1628 55.3003 10.0467 55.1775 9.87261C55.116 9.75654 55.0546 9.58243 54.9318 9.46635C54.8089 9.35028 54.7475 9.2342 54.6247 9.11813C54.5019 9.00205 54.379 8.88597 54.1948 8.82794C54.0719 8.71186 53.8877 8.65382 53.7649 8.59579C53.5806 8.53775 53.4578 8.42167 53.2735 8.36364C53.0893 8.3056 52.905 8.24756 52.7822 8.18952C52.7208 8.18952 52.5979 8.13149 52.5365 8.07345C52.4751 8.01541 52.3523 8.01541 52.2908 7.95737C52.2294 7.89933 52.1066 7.89933 52.0452 7.8413C51.9838 7.78326 51.9223 7.72522 51.8609 7.66718C51.7995 7.60915 51.7381 7.55111 51.7381 7.43503C51.6767 7.377 51.6767 7.26092 51.6767 7.20288C51.6767 7.08681 51.6767 7.02877 51.6767 6.91269C51.6767 6.85466 51.7381 6.73858 51.7381 6.68054C51.7995 6.6225 51.7995 6.50643 51.8609 6.44839C51.9223 6.39035 51.9838 6.33232 52.0452 6.27428C52.1066 6.21624 52.2294 6.1582 52.3523 6.1582C52.4751 6.10017 52.5365 6.10017 52.6593 6.10017C52.7208 6.10017 52.7822 6.10017 52.8436 6.10017C52.905 6.10017 52.9664 6.10017 53.0279 6.10017C53.1507 6.10017 53.2121 6.10017 53.3349 6.1582C53.4578 6.1582 53.5806 6.21624 53.642 6.21624C53.7034 6.21624 53.8263 6.27428 53.8877 6.27428C54.0105 6.27428 54.0719 6.33232 54.1334 6.33232L54.4404 6.44839L54.5019 6.10017L54.6247 5.17156V4.93941L54.379 4.88138C54.3176 4.88138 54.1948 4.82334 54.1334 4.82334C54.0719 4.82334 54.0105 4.7653 53.8877 4.7653C53.8263 4.7653 53.7034 4.70726 53.5806 4.70726C53.4578 4.70726 53.3964 4.64922 53.2735 4.64922H53.2121V3.8367V3.54651H52.905H52.0452H51.7381V3.8367V4.70726H51.6767C51.4924 4.7653 51.3082 4.82334 51.1239 4.93941C50.9397 4.99745 50.8168 5.11353 50.694 5.2296C50.5712 5.34568 50.4483 5.46175 50.3255 5.63587C50.2027 5.75194 50.1412 5.92605 50.0798 6.10017C50.0184 6.27428 49.957 6.44839 49.8956 6.62251C49.8342 6.79662 49.8342 7.02877 49.8342 7.20288C49.8342 7.377 49.8342 7.49307 49.8956 7.66718C49.957 7.8413 49.957 7.95737 50.0798 8.13148C50.1412 8.24756 50.2641 8.42167 50.3255 8.53775C50.4483 8.65382 50.5097 8.7699 50.6326 8.88597C50.7554 9.00205 50.8782 9.11813 51.0625 9.17616C51.1853 9.29224 51.3696 9.35028 51.4924 9.40831C51.6767 9.46635 51.8609 9.58243 51.9838 9.64046C52.168 9.6985 52.3523 9.75654 52.4751 9.81458C52.5365 9.81458 52.6593 9.87261 52.7208 9.93065C52.7822 9.98869 52.905 9.98869 52.9664 10.0467C53.0279 10.1048 53.0893 10.1628 53.1507 10.1628C53.2121 10.2208 53.2735 10.2789 53.3349 10.3369C53.3964 10.395 53.3964 10.453 53.4578 10.5691C53.4578 10.6271 53.5192 10.7432 53.5192 10.8593C53.5192 10.9753 53.5192 11.0334 53.5192 11.1494C53.5192 11.2075 53.4578 11.3236 53.3964 11.3816C53.3349 11.4396 53.2735 11.4977 53.2121 11.5557C53.1507 11.6137 53.0893 11.6718 52.9664 11.7298C52.905 11.7879 52.7822 11.7879 52.7208 11.8459C52.6593 11.8459 52.5365 11.9039 52.4137 11.9039C52.3523 11.9039 52.2908 11.9039 52.168 11.9039C52.1066 11.9039 51.9838 11.9039 51.9223 11.9039C51.7995 11.9039 51.6767 11.9039 51.6153 11.9039C51.4924 11.9039 51.3696 11.8459 51.3082 11.8459C51.1853 11.8459 51.0625 11.7879 50.9397 11.7298C50.8168 11.6718 50.694 11.6718 50.5712 11.6137C50.5097 11.6137 50.4483 11.5557 50.3869 11.5557C50.3255 11.5557 50.2641 11.4977 50.2027 11.4977L49.8342 11.3236L49.7727 11.7298L49.6499 12.7745V12.9486L49.8342 13.0066C50.0798 12.9486 50.2027 13.0066 50.3869 13.0647C50.5097 13.1227 50.694 13.1808 50.8168 13.1808C50.9397 13.2388 51.1239 13.2388 51.3082 13.2968C51.4924 13.3549 51.6153 13.3549 51.7995 13.3549H51.9223V14.2254V14.5156H52.2294H53.0893H53.3964V14.2254V13.2968H53.4578C53.642 13.2388 53.8263 13.1808 54.0105 13.0647C54.1948 13.0066 54.3176 12.8906 54.5019 12.7745C54.6247 12.6584 54.7475 12.5423 54.8704 12.3682C54.9932 12.2522 55.0546 12.078 55.1775 11.9039C55.2389 11.7298 55.3003 11.5557 55.3617 11.3816C55.4231 11.2075 55.4231 11.0334 55.4231 10.8012C55.4231 10.6271 55.4231 10.511 55.3617 10.3369Z" fill="#E33237"/>
<path d="M48.3099 21.2256C48.0136 20.8149 47.3616 20.7562 46.9467 21.0496L37.3454 28.6193L24.9585 23.5141C24.6621 23.3968 24.3065 23.4555 24.0695 23.6315L10.7935 33.0202C10.3787 33.3136 10.2601 33.9004 10.5565 34.3112C10.7343 34.6046 11.0306 34.7219 11.3269 34.7219C11.5047 34.7219 11.6825 34.6633 11.8603 34.5459L24.7214 25.4506L37.1676 30.5557C37.4639 30.673 37.8788 30.6144 38.1159 30.4383L48.1321 22.5753C48.547 22.2819 48.6062 21.6364 48.3099 21.2256Z" fill="#E33237"/>
<path fill-rule="evenodd" clip-rule="evenodd" d="M46.6785 21.0794L46.6822 21.0768C47.1593 20.7447 47.9197 20.7982 48.279 21.2885C48.6189 21.7522 48.5652 22.4907 48.0656 22.842L38.1436 30.5088L38.1417 30.5102C37.9946 30.6177 37.8024 30.6834 37.6109 30.7077C37.4189 30.7321 37.2113 30.7172 37.0307 30.6468L37.0287 30.646L24.7883 25.7041L12.1238 34.5198L12.1214 34.5214C11.9222 34.6508 11.7125 34.7219 11.495 34.7219C11.1559 34.7219 10.7992 34.5884 10.5839 34.2437C10.235 33.7609 10.381 33.0866 10.8639 32.7504L24.0153 23.5957C24.2972 23.3907 24.7132 23.323 25.0658 23.4604L25.0681 23.4613L37.244 28.4007L46.6785 21.0794ZM37.2724 28.5986L25.0003 23.6202C24.7067 23.5057 24.3544 23.563 24.1195 23.7346L10.9666 32.8904C10.5555 33.1765 10.4381 33.7488 10.7317 34.1493C10.9078 34.4354 11.2014 34.5499 11.495 34.5499C11.6712 34.5499 11.8473 34.4927 12.0235 34.3782L24.7654 25.5086L37.0963 30.487C37.3899 30.6015 37.8009 30.5442 38.0358 30.3726L47.9592 22.7046C48.3702 22.4185 48.4289 21.789 48.1354 21.3885C47.8418 20.9879 47.1959 20.9307 46.7848 21.2168L37.2724 28.5986Z" fill="#E33237"/>
<path d="M62.032 53.6255H57.6393V26.4247C57.6393 25.896 57.2238 25.4847 56.6896 25.4847H47.9635C47.4293 25.4847 47.0138 25.896 47.0138 26.4247V53.6255H43.8083V35.8246C43.8083 35.2958 43.3927 34.8846 42.8585 34.8846H34.0731C33.5389 34.8846 33.1233 35.2958 33.1233 35.8246V53.6255H29.9179V34.4146C29.9179 33.8859 29.5023 33.4746 28.9681 33.4746H20.242C19.7078 33.4746 19.2923 33.8859 19.2923 34.4146V53.6255H16.0868V39.937C16.0868 39.4083 15.6713 38.997 15.137 38.997H6.35161C5.81736 38.997 5.40183 39.4083 5.40183 39.937V53.6255H0.949773C0.415526 53.6255 0 54.0368 0 54.5655C0 55.0942 0.415526 55.5055 0.949773 55.5055H6.29225H15.0183H20.242H28.9681H34.0731H42.7991H47.9042H56.6302H61.9727C62.5069 55.5055 62.9225 55.0942 62.9225 54.5655C62.9818 54.0368 62.5663 53.6255 62.032 53.6255ZM14.1279 53.6255H7.30138V40.877H14.1279V53.6255ZM28.0183 53.6255H21.1918V35.3546H28.0183V53.6255ZM41.8494 53.6255H35.0229V36.7646H41.8494V53.6255ZM55.7398 53.6255H48.9133V27.3647H55.7398V53.6255Z" fill="#E33237"/>
<path fill-rule="evenodd" clip-rule="evenodd" d="M58.1987 53.2557H62.4275C63.0552 53.2557 63.5665 53.7456 63.5001 54.3903C63.495 55.0166 62.9997 55.5054 62.368 55.5054H1.13267C0.497647 55.5054 0.000488281 55.0115 0.000488281 54.3806C0.000488281 53.7496 0.497648 53.2557 1.13267 53.2557H5.42112V39.6442C5.42112 39.0132 5.91828 38.5193 6.55331 38.5193H15.3693C16.0043 38.5193 16.5015 39.0132 16.5015 39.6442V53.2557H19.3599V34.081C19.3599 33.4501 19.8571 32.9561 20.4921 32.9561H29.2485C29.8835 32.9561 30.3807 33.4501 30.3807 34.081V53.2557H33.2391V35.5014C33.2391 34.8705 33.7363 34.3765 34.3713 34.3765H43.1873C43.8223 34.3765 44.3194 34.8705 44.3194 35.5014V53.2557H47.1779V26.0322C47.1779 25.4013 47.675 24.9073 48.3101 24.9073H57.0665C57.7015 24.9073 58.1987 25.4013 58.1987 26.0322V53.2557ZM63.321 54.3806C63.321 54.9132 62.9041 55.3275 62.368 55.3275H1.13267C0.596565 55.3275 0.179593 54.9132 0.179593 54.3806C0.179593 53.8479 0.596565 53.4336 1.13267 53.4336H5.60023V39.6442C5.60023 39.1115 6.0172 38.6972 6.55331 38.6972H15.3693C15.9054 38.6972 16.3224 39.1115 16.3224 39.6442V53.4336H19.539V34.081C19.539 33.5484 19.956 33.1341 20.4921 33.1341H29.2485C29.7846 33.1341 30.2016 33.5484 30.2016 34.081V53.4336H33.4182V35.5014C33.4182 34.9687 33.8352 34.5545 34.3713 34.5545H43.1873C43.7234 34.5545 44.1403 34.9687 44.1403 35.5014V53.4336H47.357V26.0322C47.357 25.4996 47.7739 25.0853 48.3101 25.0853H57.0665C57.6026 25.0853 58.0195 25.4996 58.0195 26.0322V53.4336H62.4275C62.9636 53.4336 63.3806 53.8479 63.321 54.3806ZM7.68549 53.2557H14.1775V40.769H7.68549V53.2557ZM21.6243 53.2557H28.1163V35.2059H21.6243V53.2557ZM35.5035 53.2557H41.9955V36.6263H35.5035V53.2557ZM49.4422 53.2557H55.9343V27.1571H49.4422V53.2557ZM14.3566 53.4336V40.5911H7.50638V53.4336H14.3566ZM28.2954 53.4336V35.0279H21.4452V53.4336H28.2954ZM42.1746 53.4336V36.4483H35.3244V53.4336H42.1746ZM56.1134 53.4336V26.9791H49.2631V53.4336H56.1134Z" fill="#E33237"/>
</svg>
