<svg width="564" height="733" viewBox="0 0 564 733" fill="none" xmlns="http://www.w3.org/2000/svg">
<path d="M372.063 874.547C442.334 797.653 514.773 723.825 588.886 651.342C660.471 581.333 717.929 498.413 785.625 424.445C706.732 292.372 627.821 160.312 548.895 28.2597C498.681 40.7395 449.439 55.8479 400.066 70.5878C354.754 84.1151 307.22 91.5404 261.928 104.796C231.863 113.598 213.944 133.21 223.324 170.833C233.992 213.626 244.838 240.881 203.26 256.602C234.37 318.116 207.825 355.421 178.854 398.231C152.993 436.445 135.897 474.183 164.327 526.664C228.34 644.831 303.076 759.147 372.063 874.547Z" stroke="#ED2939" stroke-width="0.5" stroke-miterlimit="10"/>
<path d="M219.205 311.151C249.522 290.997 246.828 261.995 248.425 224.224C250.069 185.298 274.679 167.726 305.865 157.297C349.68 142.646 394.347 131.502 437.098 114.117C481.016 96.2567 524.895 78.4523 570.423 64.2771" stroke="#ED2939" stroke-width="0.5" stroke-miterlimit="10"/>
<path d="M205.912 356.525C236.111 335.809 251.133 303.943 269.624 271.517C288.031 239.233 318.729 221.748 352.131 210.008C436.038 180.519 509.14 131.685 591.949 100.294" stroke="#ED2939" stroke-width="0.5" stroke-miterlimit="10"/>
<path d="M179.219 397.694C217.506 376.259 251.996 348.602 287.08 322.222C321.265 296.518 358.734 278.83 398.518 263.074C477.122 231.943 537.056 171.166 613.468 136.311" stroke="#ED2939" stroke-width="0.5" stroke-miterlimit="10"/>
<path d="M154.568 440.693C249.849 397.015 348.705 360.772 444.137 317.659C518.33 284.142 563.739 210.61 634.998 172.336" stroke="#ED2939" stroke-width="0.5" stroke-miterlimit="10"/>
<path d="M150.609 494.867C257.365 444.303 380.682 427.31 484.669 371.556C555.336 333.668 588.193 250.047 656.513 208.351" stroke="#ED2939" stroke-width="0.5" stroke-miterlimit="10"/>
<path d="M183.215 558.488C286.423 498.53 413.936 485.77 514.634 421.718C583.209 378.098 611.268 290.632 678.032 244.37" stroke="#ED2939" stroke-width="0.5" stroke-miterlimit="10"/>
<path d="M220.985 621.696C318.433 557.509 439.259 534.869 534.974 468.339C603.644 420.608 634.017 331.968 699.555 280.382" stroke="#ED2939" stroke-width="0.5" stroke-miterlimit="10"/>
<path d="M258.748 684.912C348.631 615.967 459.505 581.525 549.764 513.642C619.495 461.2 655.529 373.463 721.074 316.402" stroke="#ED2939" stroke-width="0.5" stroke-miterlimit="10"/>
<path d="M296.514 748.12C378.122 674.921 477.101 627.859 561.858 559.389C633.231 501.73 676.138 415.257 742.598 352.415" stroke="#ED2939" stroke-width="0.5" stroke-miterlimit="10"/>
<path d="M334.28 811.33C408.728 735.209 494.632 674.78 574.009 605.041C646.275 541.548 696.804 457.055 764.113 388.427" stroke="#ED2939" stroke-width="0.5" stroke-miterlimit="10"/>
<path d="M764.084 448.73C683.769 310.052 601.468 172.749 517.512 36.2463" stroke="#ED2939" stroke-width="0.5" stroke-miterlimit="10"/>
<path d="M742.356 475.496C661.772 328.225 576.148 186.415 485.138 45.3549" stroke="#ED2939" stroke-width="0.5" stroke-miterlimit="10"/>
<path d="M719.52 504.864C682.247 430.777 646.206 356.384 603.564 285.014C556.334 205.961 502.713 131.343 450.747 55.5298" stroke="#ED2939" stroke-width="0.5" stroke-miterlimit="10"/>
<path d="M694.346 536.964C659.906 460.565 628.906 382.545 585.647 310.083C534.572 224.529 471.526 146.76 412.993 66.6913" stroke="#ED2939" stroke-width="0.5" stroke-miterlimit="10"/>
<path d="M664.771 572.681C632.965 494.498 607.747 413.74 563.945 340.266C508.341 246.996 435.106 165.125 369.672 79.4744" stroke="#ED2939" stroke-width="0.5" stroke-miterlimit="10"/>
<path d="M630.558 610.221C601.226 529.328 583.957 444.297 538.926 368.605C478.802 267.543 393.029 182.584 320.369 91.7847" stroke="#ED2939" stroke-width="0.5" stroke-miterlimit="10"/>
<path d="M589.223 651.024C559.205 566.003 549.088 477.153 501.535 397.276C436.907 288.717 340.87 201.606 262.397 104.698" stroke="#ED2939" stroke-width="0.5" stroke-miterlimit="10"/>
<path d="M542.292 697.33C504.91 608.686 488.538 511.043 437.098 427.547C373.188 323.805 294.825 228.842 224.361 129.93" stroke="#ED2939" stroke-width="0.5" stroke-miterlimit="10"/>
<path d="M490.069 748.675C441.188 652.127 408.999 549.34 354.054 455.442C300.904 364.608 271.844 264.392 223.395 171.43" stroke="#ED2939" stroke-width="0.5" stroke-miterlimit="10"/>
<path d="M433.612 807.245C400.587 750.717 370.615 692.732 340.323 634.784C314.068 584.555 284.8 536.241 257.62 486.607C207.821 395.67 264.967 308.349 232.892 215.559" stroke="#ED2939" stroke-width="0.5" stroke-miterlimit="10"/>
</svg>
