<svg width="306" height="591" viewBox="0 0 306 591" fill="none" xmlns="http://www.w3.org/2000/svg">
<path d="M306.893 589.154C341.311 532.734 377.451 477.961 414.797 423.822C450.87 371.53 476.577 312.915 509.747 258.631C444.576 185.971 379.394 113.321 314.205 40.6777C284.452 54.5489 255.624 69.9388 226.669 85.1151C200.096 99.0431 171.398 109.441 144.804 123.197C127.151 132.331 118.375 146.72 128.787 169.009C140.628 194.361 150.693 210.015 126.712 224.856C153.556 259.382 141.558 285.837 128.718 316.015C117.256 342.953 111.194 368.529 135.273 397.757C189.49 463.565 249.915 525.672 306.893 589.154Z" stroke="#ED2939" stroke-width="0.5" stroke-miterlimit="10"/>
<path d="M143.267 256.888C159.697 240.655 154.497 222.922 150.902 199.208C147.198 174.768 160.388 160.837 178.541 150.554C204.046 136.108 230.507 123.743 255.016 107.724C280.196 91.2668 305.357 74.8496 331.985 60.492" stroke="#ED2939" stroke-width="0.5" stroke-miterlimit="10"/>
<path d="M140.499 286.757C156.788 270.189 162.271 248.521 169.847 226.082C177.388 203.743 194.38 189.125 213.753 177.757C262.421 149.201 302.011 109.912 349.764 80.3046" stroke="#ED2939" stroke-width="0.5" stroke-miterlimit="10"/>
<path d="M128.885 315.636C150.122 297.637 168.24 276.225 186.883 255.536C205.048 235.377 226.232 219.811 249.092 205.167C294.258 176.233 324.197 131.105 367.546 100.119" stroke="#ED2939" stroke-width="0.5" stroke-miterlimit="10"/>
<path d="M118.754 345.405C172.781 306.632 229.937 272.054 284.127 233.614C326.257 203.73 345.601 152.424 385.326 119.935" stroke="#ED2939" stroke-width="0.5" stroke-miterlimit="10"/>
<path d="M122.868 379.622C183.205 335.166 257.932 309.605 315.913 262.254C355.316 230.076 365.619 174.013 403.097 139.749" stroke="#ED2939" stroke-width="0.5" stroke-miterlimit="10"/>
<path d="M150.902 415.277C207.888 365.404 285.742 341.968 340.668 289.85C378.071 254.356 384.919 196.482 420.874 159.564" stroke="#ED2939" stroke-width="0.5" stroke-miterlimit="10"/>
<path d="M182.103 450.051C234.988 398.243 307.477 369.467 358.999 316.411C395.962 278.347 404.109 219.46 438.654 179.375" stroke="#ED2939" stroke-width="0.5" stroke-miterlimit="10"/>
<path d="M213.297 484.829C260.893 430.977 325.752 396.061 373.711 342.825C410.763 301.698 422.544 242.686 456.429 199.191" stroke="#ED2939" stroke-width="0.5" stroke-miterlimit="10"/>
<path d="M244.487 519.602C286.413 464.107 342.332 422.777 386.794 369.844C424.234 325.269 440.449 266.209 474.201 219.003" stroke="#ED2939" stroke-width="0.5" stroke-miterlimit="10"/>
<path d="M275.687 554.377C312.8 497.933 358.953 449.867 399.911 396.797C437.199 348.481 458.4 289.728 491.978 238.816" stroke="#ED2939" stroke-width="0.5" stroke-miterlimit="10"/>
<path d="M499.282 276.371C432.423 199.77 364.494 124.267 295.632 49.4634" stroke="#ED2939" stroke-width="0.5" stroke-miterlimit="10"/>
<path d="M489.007 295.676C420.936 213.758 350.391 135.852 276.582 59.067" stroke="#ED2939" stroke-width="0.5" stroke-miterlimit="10"/>
<path d="M478.355 316.739C446.145 275.132 414.665 233.184 379.442 193.921C340.428 150.431 297.973 110.479 256.404 69.5814" stroke="#ED2939" stroke-width="0.5" stroke-miterlimit="10"/>
<path d="M466.574 339.786C435.847 296.395 407.065 251.576 371.325 211.708C329.127 164.637 280.42 123.868 234.245 81.118" stroke="#ED2939" stroke-width="0.5" stroke-miterlimit="10"/>
<path d="M452.497 365.619C423.194 320.798 397.68 273.572 361.478 233.139C315.523 181.813 259.973 139.727 208.822 94.3403" stroke="#ED2939" stroke-width="0.5" stroke-miterlimit="10"/>
<path d="M435.756 393.152C407.664 346.342 386.581 295.491 349.345 253.826C299.628 198.197 235.896 155.711 179.62 107.996" stroke="#ED2939" stroke-width="0.5" stroke-miterlimit="10"/>
<path d="M414.971 423.584C385.951 374.286 368.857 320.187 329.543 276.223C276.11 216.472 205.725 173.893 145.087 123.08" stroke="#ED2939" stroke-width="0.5" stroke-miterlimit="10"/>
<path d="M391.368 458.119C357.321 407.46 335.265 348.646 293.089 302.9C240.69 246.062 180.357 196.446 124.462 143.412" stroke="#ED2939" stroke-width="0.5" stroke-miterlimit="10"/>
<path d="M365.091 496.435C322.923 442.25 290.393 382.154 244.771 330.357C200.64 280.25 170.37 221.374 128.908 169.37" stroke="#ED2939" stroke-width="0.5" stroke-miterlimit="10"/>
<path d="M337.042 539.768C309.611 508.579 283.903 476.112 258.001 443.707C235.55 415.618 211.455 389.087 188.5 361.481C146.443 310.903 171.421 249.585 140.176 195.7" stroke="#ED2939" stroke-width="0.5" stroke-miterlimit="10"/>
</svg>
